<svg width="48" height="46" viewBox="0 0 48 46" fill="none" xmlns="http://www.w3.org/2000/svg">
<g opacity="0.2">
<path d="M44.1056 38.7153C45.9116 38.7153 47.3757 40.1794 47.3757 41.9855C47.3757 43.7915 45.9116 45.2556 44.1056 45.2556C42.2995 45.2556 40.8354 43.7915 40.8354 41.9855C40.8354 40.1794 42.2995 38.7153 44.1056 38.7153Z" fill="#989898"/>
<path d="M4.86685 3.27051C6.10301 3.27051 7.07616 4.24366 7.07616 5.47982C7.07616 6.71599 6.10301 7.68914 4.86685 7.68914C3.63068 7.68914 2.65753 6.71599 2.65753 5.47982C2.65753 4.24366 3.71835 3.27051 4.86685 3.27051Z" fill="#989898"/>
<path d="M41.3686 22.3625C41.9034 28.3768 39.247 34.2946 34.2936 37.9154L24.2201 45.2535L14.1467 37.9154C9.19331 34.3822 6.54563 28.4557 7.07166 22.3625L7.69413 12.3768C10.6136 12.3768 13.0859 9.54499 13.2612 6.54663H35.1791C35.3544 9.46608 37.8267 12.3768 40.7462 12.3768L41.3686 22.3625Z" fill="#333333"/>
<path d="M35.0901 32.5159C35.1852 32.6423 35.2432 32.7927 35.2576 32.9502C35.2719 33.1078 35.2421 33.2662 35.1714 33.4077C35.1006 33.5492 34.9919 33.6682 34.8573 33.7513C34.7227 33.8344 34.5676 33.8784 34.4094 33.8783H13.9874C13.8294 33.8783 13.6745 33.8343 13.54 33.7512C13.4056 33.6681 13.297 33.5493 13.2263 33.4079C13.1556 33.2666 13.1257 33.1084 13.1399 32.951C13.1541 32.7937 13.2118 32.6434 13.3067 32.517C14.0601 31.5069 15.0649 30.7116 16.221 30.2102C15.5873 29.6319 15.1432 28.8755 14.9472 28.0403C14.7511 27.2051 14.8121 26.3301 15.1223 25.5303C15.4325 24.7304 15.9773 24.043 16.6853 23.5582C17.3932 23.0735 18.2311 22.8141 19.0892 22.8141C19.9472 22.8141 20.7851 23.0735 21.4931 23.5582C22.201 24.043 22.7458 24.7304 23.056 25.5303C23.3662 26.3301 23.4272 27.2051 23.2311 28.0403C23.0351 28.8755 22.591 29.6319 21.9573 30.2102C22.7914 30.5707 23.5494 31.0865 24.1909 31.73C24.8324 31.0865 25.5904 30.5707 26.4246 30.2102C25.7908 29.6319 25.3468 28.8755 25.1507 28.0403C24.9546 27.2051 25.0157 26.3301 25.3259 25.5303C25.636 24.7304 26.1809 24.043 26.8888 23.5582C27.5967 23.0735 28.4347 22.8141 29.2927 22.8141C30.1507 22.8141 30.9887 23.0735 31.6966 23.5582C32.4045 24.043 32.9493 24.7304 33.2595 25.5303C33.5697 26.3301 33.6308 27.2051 33.4347 28.0403C33.2386 28.8755 32.7946 29.6319 32.1608 30.2102C33.3223 30.709 34.3325 31.5041 35.0901 32.5159ZM13.4768 22.6476C13.5662 22.7147 13.668 22.7635 13.7762 22.7912C13.8845 22.8189 13.9971 22.8251 14.1077 22.8093C14.2183 22.7935 14.3248 22.756 14.4209 22.6991C14.5171 22.6422 14.6011 22.5669 14.6681 22.4775C15.1833 21.7906 15.8514 21.2332 16.6194 20.8492C17.3874 20.4653 18.2342 20.2654 19.0929 20.2654C19.9515 20.2654 20.7984 20.4653 21.5664 20.8492C22.3344 21.2332 23.0024 21.7906 23.5176 22.4775C23.5969 22.5831 23.6997 22.6689 23.8178 22.728C23.936 22.7871 24.0663 22.8178 24.1984 22.8178C24.3305 22.8178 24.4608 22.7871 24.5789 22.728C24.6971 22.6689 24.7998 22.5831 24.8791 22.4775C25.3943 21.7906 26.0623 21.2332 26.8303 20.8492C27.5983 20.4653 28.4452 20.2654 29.3039 20.2654C30.1625 20.2654 31.0094 20.4653 31.7774 20.8492C32.5454 21.2332 33.2134 21.7906 33.7286 22.4775C33.7957 22.5669 33.8798 22.6422 33.976 22.6991C34.0722 22.756 34.1787 22.7933 34.2894 22.8091C34.4001 22.8248 34.5127 22.8186 34.621 22.7909C34.7293 22.7631 34.831 22.7142 34.9204 22.6471C35.0098 22.58 35.0851 22.4959 35.142 22.3997C35.1989 22.3035 35.2363 22.1971 35.2521 22.0864C35.2678 21.9758 35.2616 21.8631 35.2338 21.7548C35.2061 21.6466 35.1572 21.5448 35.0901 21.4555C34.3366 20.4457 33.3318 19.6508 32.1757 19.1498C32.8094 18.5714 33.2535 17.815 33.4496 16.9798C33.6457 16.1446 33.5846 15.2697 33.2744 14.4698C32.9642 13.6699 32.4194 12.9825 31.7115 12.4978C31.0036 12.013 30.1656 11.7537 29.3076 11.7537C28.4496 11.7537 27.6116 12.013 26.9037 12.4978C26.1958 12.9825 25.6509 13.6699 25.3408 14.4698C25.0306 15.2697 24.9695 16.1446 25.1656 16.9798C25.3617 17.815 25.8057 18.5714 26.4395 19.1498C25.6053 19.5103 24.8473 20.026 24.2058 20.6695C23.5643 20.026 22.8063 19.5103 21.9722 19.1498C22.6059 18.5714 23.05 17.815 23.246 16.9798C23.4421 16.1446 23.3811 15.2697 23.0709 14.4698C22.7607 13.6699 22.2159 12.9825 21.508 12.4978C20.8 12.013 19.9621 11.7537 19.104 11.7537C18.246 11.7537 17.4081 12.013 16.7001 12.4978C15.9922 12.9825 15.4474 13.6699 15.1372 14.4698C14.827 15.2697 14.766 16.1446 14.9621 16.9798C15.1581 17.815 15.6022 18.5714 16.2359 19.1498C15.0744 19.649 14.0642 20.4444 13.3067 21.4565C13.2396 21.5459 13.1908 21.6476 13.1631 21.7558C13.1354 21.8641 13.1292 21.9767 13.145 22.0873C13.1608 22.1979 13.1983 22.3043 13.2552 22.4005C13.3121 22.4966 13.3874 22.5806 13.4768 22.6476Z" fill="#EEF2F6"/>
<path d="M47.2022 4.95312C47.6405 4.95312 48 5.31258 48 5.75093C48 6.18929 47.6405 6.54874 47.2022 6.54874C46.7638 6.54874 46.4044 6.18929 46.4044 5.75093C46.4044 5.31258 46.7638 4.95312 47.2022 4.95312Z" fill="#989898"/>
<path d="M44.3826 27.0535C44.821 27.0535 45.1804 27.4129 45.1804 27.8513C45.1804 28.2896 44.821 28.6491 44.3826 28.6491C43.9443 28.6491 43.5848 28.2896 43.5848 27.8513C43.5848 27.4129 43.9443 27.0535 44.3826 27.0535Z" fill="#989898"/>
<path d="M33.9469 44.2061C34.3852 44.2061 34.7447 44.5655 34.7447 45.0039C34.7447 45.4422 34.3852 45.8017 33.9469 45.8017C33.5085 45.8017 33.1491 45.4422 33.1491 45.0039C33.1491 44.5655 33.5085 44.2061 33.9469 44.2061Z" fill="#989898"/>
<path d="M15.1118 0C15.5502 0 15.9096 0.359452 15.9096 0.797808C15.9096 1.23616 15.5502 1.59562 15.1118 1.59562C14.6734 1.59562 14.314 1.23616 14.314 0.797808C14.314 0.359452 14.6734 0 15.1118 0Z" fill="#989898"/>
<path d="M6.81508 42.5208C7.25344 42.5208 7.61289 42.8802 7.61289 43.3186C7.61289 43.7569 7.25344 44.1164 6.81508 44.1164C6.37672 44.1164 6.01727 43.7569 6.01727 43.3186C6.01727 42.8802 6.37672 42.5208 6.81508 42.5208Z" fill="#989898"/>
<path d="M0.797808 22.627C1.23616 22.627 1.59562 22.9864 1.59562 23.4248C1.59562 23.8631 1.23616 24.2226 0.797808 24.2226C0.359452 24.2226 0 23.8631 0 23.4248C0 22.9864 0.359452 22.627 0.797808 22.627Z" fill="#989898"/>
<path d="M24.2168 45.7904C24.1291 45.7904 23.9537 45.7904 23.8661 45.7027L13.7927 38.3646C11.3203 36.5937 9.28635 34.1213 8.05019 31.2896C6.81402 28.4578 6.27923 25.3717 6.55101 22.3646L7.17347 12.3789C7.17347 12.1159 7.43649 11.8528 7.6995 11.8528C10.1718 11.8528 12.5653 9.38051 12.7406 6.54873C12.7406 6.28572 13.0036 6.02271 13.2666 6.02271H35.1844C35.4474 6.02271 35.7105 6.28572 35.7105 6.54873C35.8858 9.38051 38.1828 11.8528 40.7516 11.8528C41.0146 11.8528 41.2776 12.1159 41.2776 12.3789L41.9 22.3646C42.1631 25.4594 41.637 28.5542 40.4009 31.2896C39.1647 34.1213 37.1307 36.506 34.6584 38.3646L24.585 45.7027C24.4973 45.7904 24.322 45.7904 24.2343 45.7904H24.2168ZM8.21676 12.9049L7.59429 22.4523C7.0595 28.2824 9.62827 34.0337 14.3976 37.4791L24.208 44.5542L34.0184 37.4791C38.7877 34.0337 41.3565 28.2824 40.8217 22.4523L40.2957 12.9049C37.5516 12.6419 35.1669 10.1608 34.7285 7.07476H13.7839C13.3455 10.1696 10.9521 12.6419 8.21676 12.9049Z" fill="#989898"/>
<path d="M44.1069 45.793C41.9852 45.793 40.2143 44.0221 40.2143 41.9004C40.2143 39.7788 41.9852 38.0078 44.1069 38.0078C46.2285 38.0078 47.9995 39.7788 47.9995 41.9004C47.9995 44.0221 46.2285 45.793 44.1069 45.793ZM44.1069 39.1651C42.6077 39.1651 41.3628 40.4012 41.3628 41.9092C41.3628 43.4171 42.5989 44.6533 44.1069 44.6533C45.6148 44.6533 46.851 43.4171 46.851 41.9092C46.851 40.4012 45.6148 39.1651 44.1069 39.1651Z" fill="#EEF2F6"/>
<path d="M4.86691 8.22406C3.36773 8.22406 2.1228 6.9879 2.1228 5.47995C2.1228 3.97201 3.35897 2.73584 4.86691 2.73584C6.37486 2.73584 7.61102 3.97201 7.61102 5.47995C7.61102 6.9879 6.46253 8.22406 4.86691 8.22406ZM4.86691 3.80543C3.98143 3.80543 3.18362 4.51557 3.18362 5.48872C3.18362 6.3742 3.89376 7.172 4.86691 7.172C5.75239 7.172 6.5502 6.46187 6.5502 5.48872C6.5502 4.51557 5.84006 3.80543 4.86691 3.80543Z" fill="#EEF2F6"/>
</g>
</svg>
