<svg width="13" height="20" viewBox="0 0 13 20" fill="none" xmlns="http://www.w3.org/2000/svg">
<path d="M11.8159 16.9351L4.94119 9.99067L11.8159 3.04627C11.9799 2.88057 12.1101 2.68385 12.1988 2.46735C12.2876 2.25085 12.3333 2.0188 12.3333 1.78446C12.3333 1.55012 12.2876 1.31808 12.1988 1.10158C12.1101 0.885078 11.9799 0.68836 11.8159 0.522657C11.6519 0.356955 11.4571 0.225512 11.2428 0.135834C11.0285 0.0461568 10.7987 -6.8824e-08 10.5668 -7.72185e-08C10.3348 -8.5613e-08 10.1051 0.0461568 9.89073 0.135834C9.6764 0.225512 9.48166 0.356955 9.31762 0.522657L1.18491 8.73782C0.493893 9.43584 0.493893 10.5634 1.18491 11.2614L9.31762 19.4766C9.48154 19.6425 9.67624 19.7741 9.89058 19.864C10.1049 19.9538 10.3347 20 10.5668 20C10.7988 20 11.0286 19.9538 11.2429 19.864C11.4573 19.7741 11.652 19.6425 11.8159 19.4766C12.4892 18.7786 12.5069 17.6331 11.8159 16.9351Z" fill="#333333"/>
</svg>
