<svg width="12" height="12" viewBox="0 0 12 12" fill="none" xmlns="http://www.w3.org/2000/svg">
<g clip-path="url(#clip0_34_8935)">
<path d="M6.02598 7.41454L6.73298 8.12154L8.85498 6.00004L6.73348 3.87854L6.02648 4.58604L6.93998 5.50004L3.17148 5.50004L3.17148 6.50004L6.93998 6.50004L6.02598 7.41454Z" fill="#FFC700"/>
<path fill-rule="evenodd" clip-rule="evenodd" d="M9.889 9.889C12.037 7.741 12.037 4.259 9.889 2.111C7.741 -0.0370001 4.259 -0.0370003 2.111 2.111C-0.0369999 4.259 -0.037 7.741 2.111 9.889C4.259 12.037 7.741 12.037 9.889 9.889ZM9.182 9.182C10.0259 8.33808 10.5 7.19348 10.5 6C10.5 4.80652 10.0259 3.66192 9.182 2.818C8.33808 1.97408 7.19348 1.49997 6 1.49997C4.80652 1.49997 3.66192 1.97408 2.818 2.818C1.97408 3.66192 1.49997 4.80652 1.49997 6C1.49997 7.19348 1.97408 8.33808 2.818 9.182C3.66192 10.0259 4.80652 10.5 6 10.5C7.19348 10.5 8.33808 10.0259 9.182 9.182Z" fill="#FFC700"/>
</g>
<defs>
<clipPath id="clip0_34_8935">
<rect width="12" height="12" fill="white"/>
</clipPath>
</defs>
</svg>
