<svg width="12" height="20" viewBox="0 0 12 20" fill="none" xmlns="http://www.w3.org/2000/svg">
<path d="M0.850756 16.9351L7.72547 9.99067L0.850756 3.04627C0.686716 2.88057 0.556593 2.68385 0.467816 2.46735C0.379038 2.25085 0.333344 2.0188 0.333344 1.78446C0.333344 1.55012 0.379038 1.31808 0.467816 1.10158C0.556593 0.885078 0.686716 0.68836 0.850755 0.522657C1.0148 0.356955 1.20954 0.225512 1.42387 0.135834C1.63819 0.0461568 1.86791 -6.8824e-08 2.0999 -7.72185e-08C2.33188 -8.5613e-08 2.5616 0.0461568 2.77593 0.135834C2.99026 0.225512 3.185 0.356955 3.34904 0.522657L11.4817 8.73782C12.1728 9.43584 12.1728 10.5634 11.4817 11.2614L3.34904 19.4766C3.18512 19.6425 2.99042 19.7741 2.77607 19.864C2.56173 19.9538 2.33195 20 2.0999 20C1.86784 20 1.63807 19.9538 1.42372 19.864C1.20938 19.7741 1.01467 19.6425 0.850756 19.4766C0.17746 18.7786 0.159742 17.6331 0.850756 16.9351Z" fill="#333333"/>
</svg>
