<svg width="24" height="24" viewBox="0 0 24 24" fill="none" xmlns="http://www.w3.org/2000/svg">
<g clip-path="url(#clip0_2286_1208)">
<path d="M24 12C24 13.2535 23.8095 14.4633 23.4517 15.5985C22.906 17.3333 21.9794 18.8983 20.7671 20.1931C20.7413 20.2239 20.7156 20.2523 20.6873 20.2806C20.6512 20.3192 20.6126 20.3578 20.5766 20.3938C18.399 22.6178 15.3616 24 12 24C11.4801 24 10.9627 23.9665 10.4607 23.9048C10.4556 23.9022 10.453 23.9022 10.4479 23.9022C9.21236 23.74 8.03346 23.3925 6.94466 22.8855C6.85457 22.8443 6.76448 22.8005 6.67439 22.7568C4.9009 21.879 3.37709 20.5714 2.23681 18.973C2.139 18.834 2.04118 18.695 1.94852 18.5508C1.71686 18.2008 1.50579 17.8378 1.31532 17.4646C0.473617 15.825 0 13.9691 0 12C0 5.37194 5.37194 0 12 0C18.6281 0 24 5.37194 24 12Z" fill="#15013E"/>
<path d="M20.7671 20.1931C20.7413 20.2239 20.7156 20.2523 20.6873 20.2806C20.6512 20.3192 20.6126 20.3578 20.5766 20.3938C18.399 22.6178 15.3617 24 12 24C11.4801 24 10.9627 23.9666 10.4608 23.9048C10.4556 23.9022 10.453 23.9022 10.4479 23.9022C9.21237 23.74 8.03347 23.3925 6.94467 22.8855C7.04763 18.538 7.00387 14.7336 7.00387 14.6615C7.04506 14.5714 9.05793 14.0541 11.7375 13.9665C15.9537 13.8327 19.5161 16.2111 20.7671 20.1931Z" fill="#26A670"/>
<path d="M10.4608 23.9049C10.4608 23.9049 10.453 23.9023 10.4479 23.9023C9.21236 23.7401 8.03347 23.3926 6.94467 22.8856C6.85458 22.8444 6.76449 22.8006 6.6744 22.7569C4.90091 21.8791 3.3771 20.5715 2.23682 18.9731C4.54827 15.8045 6.43759 14.8804 7.00387 14.6616C7.1197 14.6153 7.1789 14.5999 7.1789 14.5999L10.4608 23.9049Z" fill="#26A670"/>
<path d="M12.0463 6.91376C12.0463 6.91376 14.816 7.04503 14.973 4.38866C15.1403 1.55983 12.5225 1.28956 11.4106 2.43242C10.2986 3.57528 10.5045 4.73873 10.5045 4.73873C10.5045 4.73873 9.72974 4.04117 8.88546 4.89831C8.26513 5.52895 8.5843 6.55597 8.5843 6.55597C8.5843 6.55597 7.15573 6.50192 7.28958 7.74774C7.42343 8.99613 8.31403 9.62933 8.31403 9.62933L12.0438 6.91118L12.0463 6.91376Z" fill="#EF3B38"/>
<path d="M9.51352 11.8044L9.80181 14.7491C9.80181 14.7491 10.4144 15.5445 12.1519 15.5162C13.444 15.4956 13.8662 15.1609 13.8662 15.1609L13.5418 13.6886L13.2227 12.2523L10.0463 11.8714L9.51352 11.807V11.8044Z" fill="#FCA397"/>
<path d="M10.0463 11.8687C10.0618 11.9484 10.1004 12.0411 10.1596 12.1441C10.9627 13.5495 12.7954 13.691 13.5418 13.6859L13.2226 12.2496L10.0463 11.8687Z" fill="#333333"/>
<path d="M13.2226 5.47501C13.2226 5.47501 15.13 9.01426 14.7207 11.1249C14.3114 13.2356 12.4067 13.0657 11.2484 12.7594C10.0901 12.4531 9.5135 11.8071 9.5135 11.8071C9.5135 11.8071 8.49162 12.2498 7.70912 11.3309C6.92663 10.4119 7.26639 9.25364 7.84554 8.94733C8.42469 8.64103 9.17373 9.01426 9.17373 9.01426L8.52766 7.99238C8.52766 7.99238 10.435 2.37591 13.2252 5.47243L13.2226 5.47501Z" fill="#FCA397"/>
<path d="M9.2072 10.6255C9.18661 10.6255 9.16344 10.6203 9.14285 10.6075L7.97425 9.9305C7.91247 9.89447 7.89188 9.81725 7.92792 9.75547C7.96395 9.69369 8.04117 9.6731 8.10295 9.70914L9.27155 10.3861C9.33332 10.4221 9.35392 10.4994 9.31788 10.5611C9.29471 10.6023 9.25096 10.6255 9.2072 10.6255Z" fill="#333333"/>
<path d="M8.25481 10.7283C8.20848 10.7283 8.16472 10.7026 8.14156 10.6588C8.1081 10.597 8.13384 10.5173 8.19561 10.4864L8.79021 10.1749C8.85198 10.1415 8.93178 10.1672 8.96266 10.229C8.99613 10.2907 8.97039 10.3705 8.90861 10.4014L8.31402 10.7129C8.296 10.7232 8.27541 10.7283 8.25481 10.7283Z" fill="#333333"/>
<path d="M13.74 6.86228C13.7143 6.86228 13.6911 6.85456 13.6679 6.83912C13.3385 6.61775 13.0373 6.82882 13.0244 6.83912C12.9678 6.8803 12.8855 6.86743 12.8443 6.8108C12.8031 6.75418 12.816 6.67438 12.8726 6.63062C12.8906 6.61775 13.3308 6.30372 13.8121 6.62805C13.8713 6.66666 13.8867 6.74645 13.8481 6.80566C13.8224 6.84169 13.7838 6.86228 13.7426 6.86228H13.74Z" fill="#333333"/>
<path d="M13.3436 10.2135C13.3436 10.2135 13.3282 10.2135 13.3179 10.2135C13.2484 10.2007 13.2021 10.1312 13.2149 10.0617C13.4286 8.96256 12.7902 8.24699 12.7851 8.24184C12.7362 8.19036 12.7413 8.10799 12.7928 8.05908C12.8443 8.01018 12.9266 8.01533 12.9755 8.06681C13.0064 8.10027 13.7066 8.88534 13.4698 10.1106C13.4569 10.1723 13.4028 10.2135 13.3436 10.2135Z" fill="#333333"/>
<path d="M13.7426 8.59984C13.6731 8.59984 13.6165 8.54579 13.6139 8.47629L13.583 7.77358C13.5804 7.70151 13.6345 7.64231 13.7066 7.63974C13.7786 7.63716 13.8378 7.69122 13.8404 7.76329L13.8713 8.46599C13.8739 8.53806 13.8198 8.59727 13.7477 8.59984C13.7477 8.59984 13.7452 8.59984 13.7426 8.59984Z" fill="#333333"/>
<path d="M11.8095 8.78514C11.74 8.78514 11.6834 8.73108 11.6808 8.66158L11.6499 7.95888C11.6474 7.88681 11.7014 7.82761 11.7735 7.82503C11.8456 7.81988 11.9048 7.87651 11.9073 7.94858L11.9382 8.65129C11.9408 8.72336 11.8867 8.78256 11.8147 8.78514C11.8147 8.78514 11.8121 8.78514 11.8095 8.78514Z" fill="#333333"/>
<path d="M13.6139 6.27548C13.6139 6.27548 13.2355 5.71434 12.5019 5.78127C11.7658 5.84819 11.39 6.40675 11.39 6.40675C11.39 6.40675 11.8327 7.61138 10.8983 8.36557C9.96397 9.11975 9.17375 9.01164 9.17375 9.01164L8.42472 8.82374L7.78894 7.8173L9.66281 5.35398L12.2342 3.65771L13.74 4.77741L13.6139 6.2729V6.27548Z" fill="#EF3B38"/>
<path d="M12.7336 10.9677C12.4813 10.9677 12.0412 10.8957 11.7709 10.4401C11.7349 10.3783 11.7555 10.3011 11.8147 10.2625C11.8764 10.2264 11.9537 10.247 11.9923 10.3062C12.2883 10.803 12.8571 10.7026 12.8803 10.6975C12.9498 10.6846 13.0167 10.7309 13.0296 10.8004C13.0425 10.8699 12.9987 10.9368 12.9292 10.9523C12.9189 10.9523 12.8443 10.9677 12.7336 10.9677Z" fill="#333333"/>
<path d="M14.5174 9.66023C13.825 9.66023 13.2638 9.08108 13.2638 8.36808C13.2638 7.65508 13.8275 7.07593 14.5174 7.07593C15.2072 7.07593 15.7709 7.65508 15.7709 8.36808C15.7709 9.08108 15.2072 9.66023 14.5174 9.66023ZM14.5174 7.33333C13.9665 7.33333 13.5212 7.79665 13.5212 8.36808C13.5212 8.93951 13.9691 9.40283 14.5174 9.40283C15.0656 9.40283 15.5135 8.93951 15.5135 8.36808C15.5135 7.79665 15.0656 7.33333 14.5174 7.33333Z" fill="#FAFAFA"/>
<path d="M11.5367 9.94856C10.8237 9.94856 10.2445 9.36941 10.2445 8.65641C10.2445 7.94341 10.8237 7.36426 11.5367 7.36426C12.2497 7.36426 12.8288 7.94341 12.8288 8.65641C12.8288 9.36941 12.2497 9.94856 11.5367 9.94856ZM11.5367 7.62166C10.9653 7.62166 10.5019 8.08498 10.5019 8.65641C10.5019 9.22784 10.9653 9.69116 11.5367 9.69116C12.1081 9.69116 12.5714 9.22784 12.5714 8.65641C12.5714 8.08498 12.1081 7.62166 11.5367 7.62166Z" fill="#FAFAFA"/>
<path d="M12.5766 8.65125C12.5096 8.65125 12.453 8.59977 12.4479 8.53284C12.4427 8.46335 12.4942 8.399 12.5663 8.39385L13.4775 8.3192C13.5495 8.31405 13.6113 8.36553 13.6165 8.43761C13.6216 8.5071 13.5701 8.57145 13.4981 8.5766L12.5869 8.65125C12.5869 8.65125 12.5791 8.65125 12.5766 8.65125Z" fill="#FAFAFA"/>
<path d="M8.42213 8.95503C8.39124 8.95503 8.35778 8.94216 8.33462 8.91899C8.28314 8.87008 8.28056 8.78772 8.32947 8.73624C9.02188 8.00007 10.3732 8.67961 10.4324 8.7105C10.4968 8.74396 10.5199 8.82118 10.4891 8.88295C10.4556 8.9473 10.3784 8.97047 10.3166 8.93958C10.3037 8.93443 9.0785 8.31925 8.51994 8.91384C8.4942 8.93958 8.46074 8.95503 8.42728 8.95503H8.42213Z" fill="#FAFAFA"/>
<path d="M12.1853 15.5417C11.3539 15.5417 10.3887 15.3307 9.44918 14.6408C9.39255 14.5996 9.37968 14.5173 9.42086 14.4607C9.46205 14.404 9.54442 14.3912 9.60105 14.4323C11.8739 16.1029 14.3269 14.8004 14.3501 14.7876C14.4119 14.7541 14.4917 14.7773 14.5251 14.839C14.5586 14.9008 14.5354 14.9806 14.4736 15.0141C14.4582 15.0218 13.4852 15.5392 12.1828 15.5392L12.1853 15.5417Z" fill="#FAFAFA"/>
<path d="M10.8983 7.27935C10.8752 7.27935 10.852 7.2742 10.8288 7.25876C10.7696 7.22015 10.7516 7.14293 10.7877 7.08115C11.1403 6.52002 11.6886 6.5612 11.9279 6.66416C11.9923 6.69248 12.0232 6.76712 11.9974 6.83147C11.9691 6.8984 11.8945 6.92671 11.8301 6.90097C11.807 6.89068 11.3282 6.70535 11.0064 7.21757C10.9807 7.25618 10.9395 7.27678 10.8983 7.27678V7.27935Z" fill="#333333"/>
<circle cx="20.76" cy="7.7199" r="1.32" fill="#0066FF"/>
<circle cx="19.84" cy="9.1999" r="0.8" fill="#FAFAFA"/>
<circle cx="4.99999" cy="5.79995" r="0.6" fill="#0066FF"/>
<circle cx="22.04" cy="10.2" r="0.44" fill="#141E61"/>
</g>
<defs>
<clipPath id="clip0_2286_1208">
<rect width="24" height="24" fill="white"/>
</clipPath>
</defs>
</svg>
