<svg width="24" height="25" viewBox="0 0 24 25" fill="none" xmlns="http://www.w3.org/2000/svg">
<g clip-path="url(#clip0_2744_7819)">
<path fill-rule="evenodd" clip-rule="evenodd" d="M13.2705 1.18403L23.0455 6.70104C23.3324 6.84572 23.5738 7.06833 23.7424 7.34387C23.911 7.61942 24.0002 7.93698 24 8.2609V9.93342C24 10.7348 23.356 11.3853 22.5625 11.3853H21.7V20.6771H22.85C23.155 20.6771 23.4475 20.7994 23.6632 21.0172C23.8788 21.2351 24 21.5305 24 21.8385C24 22.1466 23.8788 22.442 23.6632 22.6598C23.4475 22.8776 23.155 23 22.85 23H2.15C1.845 23 1.55249 22.8776 1.33683 22.6598C1.12116 22.442 1 22.1466 1 21.8385C1 21.5305 1.12116 21.2351 1.33683 21.0172C1.55249 20.7994 1.845 20.6771 2.15 20.6771H3.3V11.3853H2.4375C1.644 11.3853 1 10.7348 1 9.93342V8.2609C1 7.65461 1.3105 7.0971 1.8119 6.78118L11.7284 1.18403C11.9679 1.06301 12.2321 1 12.5 1C12.7679 1 13.0309 1.06301 13.2705 1.18403ZM18.25 11.3853H6.75V20.6771H9.05V13.7082H11.35V20.6771H13.65V13.7082H15.95V20.6771H18.25V11.3853ZM12.5 5.57789C12.195 5.57789 11.9025 5.70026 11.6868 5.91808C11.4712 6.1359 11.35 6.43132 11.35 6.73936C11.35 7.04741 11.4712 7.34283 11.6868 7.56065C11.9025 7.77847 12.195 7.90084 12.5 7.90084C12.805 7.90084 13.0975 7.77847 13.3132 7.56065C13.5288 7.34283 13.65 7.04741 13.65 6.73936C13.65 6.43132 13.5288 6.1359 13.3132 5.91808C13.0975 5.70026 12.805 5.57789 12.5 5.57789Z" fill="#009393"/>
</g>
<defs>
<clipPath id="clip0_2744_7819">
<rect width="24" height="24" fill="white" transform="translate(0 0.5)"/>
</clipPath>
</defs>
</svg>
