<svg width="20" height="21" viewBox="0 0 20 21" fill="none" xmlns="http://www.w3.org/2000/svg">
    <path d="M10 13.8368H15.8333C16.2754 13.8368 16.6993 13.6612 17.0118 13.3486C17.3244 13.036 17.5 12.6121 17.5 12.1701V5.50343C17.5 5.0614 17.3244 4.63748 17.0118 4.32492C16.6993 4.01236 16.2754 3.83676 15.8333 3.83676H4.16667C3.72464 3.83676 3.30072 4.01236 2.98816 4.32492C2.67559 4.63748 2.5 5.0614 2.5 5.50343V12.1701C2.5 12.6121 2.67559 13.036 2.98816 13.3486C3.30072 13.6612 3.72464 13.8368 4.16667 13.8368H10ZM10 13.8368V17.1701M10 17.1701H13.3333M10 17.1701H6.66667"
          stroke="#333333" stroke-width="2" stroke-linecap="round" stroke-linejoin="round"/>
</svg>
