<svg width="16" height="17" viewBox="0 0 16 17" fill="none" xmlns="http://www.w3.org/2000/svg">
    <path d="M11.6693 9.82933C11.4046 9.82933 11.1508 9.72419 10.9636 9.53703C10.7765 9.34986 10.6713 9.09602 10.6713 8.83133C10.6713 8.56665 10.7765 8.3128 10.9636 8.12564C11.1508 7.93848 11.4046 7.83333 11.6693 7.83333C11.934 7.83333 12.1879 7.93848 12.375 8.12564C12.5622 8.3128 12.6673 8.56665 12.6673 8.83133C12.6673 9.09602 12.5622 9.34986 12.375 9.53703C12.1879 9.72419 11.934 9.82933 11.6693 9.82933ZM10.6707 12.1653C10.6707 12.43 10.7758 12.6839 10.963 12.871C11.1501 13.0582 11.404 13.1633 11.6687 13.1633C11.9334 13.1633 12.1872 13.0582 12.3744 12.871C12.5615 12.6839 12.6667 12.43 12.6667 12.1653C12.6667 11.9006 12.5615 11.6468 12.3744 11.4596C12.1872 11.2725 11.9334 11.1673 11.6687 11.1673C11.404 11.1673 11.1501 11.2725 10.963 11.4596C10.7758 11.6468 10.6707 11.9006 10.6707 12.1653ZM8 9.828C7.73549 9.828 7.48182 9.72292 7.29478 9.53589C7.10774 9.34885 7.00267 9.09518 7.00267 8.83067C7.00267 8.56616 7.10774 8.31248 7.29478 8.12545C7.48182 7.93841 7.73549 7.83333 8 7.83333C8.26469 7.83333 8.51853 7.93848 8.70569 8.12564C8.89285 8.3128 8.998 8.56665 8.998 8.83133C8.998 9.09602 8.89285 9.34986 8.70569 9.53703C8.51853 9.72419 8.26469 9.82933 8 9.82933V9.828ZM7.00133 12.164C7.00133 12.4287 7.10648 12.6825 7.29364 12.8697C7.4808 13.0569 7.73465 13.162 7.99933 13.162C8.26402 13.162 8.51787 13.0569 8.70503 12.8697C8.89219 12.6825 8.99733 12.4287 8.99733 12.164C8.99733 11.8993 8.89219 11.6455 8.70503 11.4583C8.51787 11.2711 8.26402 11.166 7.99933 11.166C7.73465 11.166 7.4808 11.2711 7.29364 11.4583C7.10648 11.6455 7.00133 11.8993 7.00133 12.164ZM4.33467 9.828C4.06998 9.828 3.81614 9.72285 3.62897 9.53569C3.44181 9.34853 3.33667 9.09469 3.33667 8.83C3.33667 8.56531 3.44181 8.31147 3.62897 8.12431C3.81614 7.93715 4.06998 7.832 4.33467 7.832C4.59935 7.832 4.8532 7.93715 5.04036 8.12431C5.22752 8.31147 5.33267 8.56531 5.33267 8.83C5.33267 9.09469 5.22752 9.34853 5.04036 9.53569C4.8532 9.72285 4.59935 9.828 4.33467 9.828ZM0 3.83333C0 2.94928 0.351189 2.10143 0.976311 1.47631C1.60143 0.851189 2.44928 0.5 3.33333 0.5H12.6667C13.5507 0.5 14.3986 0.851189 15.0237 1.47631C15.6488 2.10143 16 2.94928 16 3.83333V13.1667C16 14.0507 15.6488 14.8986 15.0237 15.5237C14.3986 16.1488 13.5507 16.5 12.6667 16.5H3.33333C2.44928 16.5 1.60143 16.1488 0.976311 15.5237C0.351189 14.8986 0 14.0507 0 13.1667V3.83333ZM14.6667 5.83333H1.33333V13.1667C1.33333 13.6971 1.54405 14.2058 1.91912 14.5809C2.29419 14.956 2.8029 15.1667 3.33333 15.1667H12.6667C13.1971 15.1667 13.7058 14.956 14.0809 14.5809C14.456 14.2058 14.6667 13.6971 14.6667 13.1667V5.83333ZM12.6667 1.83333H3.33333C2.8029 1.83333 2.29419 2.04405 1.91912 2.41912C1.54405 2.79419 1.33333 3.3029 1.33333 3.83333V4.5H14.6667V3.83333C14.6667 3.3029 14.456 2.79419 14.0809 2.41912C13.7058 2.04405 13.1971 1.83333 12.6667 1.83333Z"
          fill="#333333"/>
</svg>
