<svg width="16" height="17" viewBox="0 0 16 17" fill="none" xmlns="http://www.w3.org/2000/svg">
<path d="M8.01719 0.75C3.64125 0.75 0.25 3.94813 0.25 8.26781C0.25 10.5272 1.17844 12.4797 2.68969 13.8284C2.95062 14.0631 2.89688 14.1991 2.94125 15.6481C2.94474 15.7496 2.97302 15.8487 3.02361 15.9368C3.0742 16.0249 3.14557 16.0992 3.23149 16.1534C3.31741 16.2075 3.41528 16.2398 3.51655 16.2474C3.61782 16.2551 3.71943 16.2378 3.8125 16.1972C5.46594 15.4691 5.48719 15.4116 5.7675 15.4878C10.5578 16.8063 15.75 13.7406 15.75 8.26781C15.75 3.94813 12.3934 0.75 8.01719 0.75ZM12.6809 6.53531L10.3997 10.1469C10.3135 10.2827 10.2003 10.3992 10.067 10.4892C9.93369 10.5792 9.78325 10.6407 9.62509 10.6698C9.46693 10.699 9.30445 10.6951 9.14785 10.6585C8.99124 10.6219 8.84388 10.5534 8.715 10.4572L6.9 9.09875C6.81886 9.0379 6.72017 9.005 6.61875 9.005C6.51733 9.005 6.41864 9.0379 6.3375 9.09875L3.88844 10.9563C3.56156 11.2041 3.13344 10.8125 3.35375 10.4666L5.635 6.855C5.72111 6.71916 5.83437 6.60257 5.96766 6.51256C6.10094 6.42255 6.25139 6.36104 6.40957 6.33191C6.56775 6.30277 6.73024 6.30663 6.88685 6.34325C7.04347 6.37986 7.19082 6.44844 7.31969 6.54469L9.13406 7.90281C9.2152 7.96367 9.31389 7.99656 9.41531 7.99656C9.51674 7.99656 9.61542 7.96367 9.69656 7.90281L12.1469 6.04719C12.4731 5.79781 12.9012 6.18906 12.6809 6.53531Z" fill="#989898"/>
</svg>
