<svg width="32" height="32" viewBox="0 0 32 32" fill="none" xmlns="http://www.w3.org/2000/svg">
<g opacity="0.2">
<path d="M31.656 5.46243V22.9986C31.656 24.2524 30.6339 25.2746 29.3804 25.2746H2.62054C1.36697 25.2746 0.34491 24.2524 0.34491 22.9986V5.46243C0.34491 4.20864 1.36697 3.1864 2.62054 3.1864H29.3804C30.6339 3.1864 31.656 4.21429 31.656 5.46243Z" fill="#333333"/>
<path d="M29.5485 21.0095H2.50635V5.34839H29.5485V21.0095Z" fill="#989898"/>
<path d="M25.2804 16H16.0029V18.846H25.2804V16Z" fill="#333333"/>
<path d="M25.2804 12.4698H16.0029V14.2373H25.2804V12.4698Z" fill="#333333"/>
<path d="M13.8905 12.4698H7.45892V18.8461H13.8905V12.4698Z" fill="#333333"/>
<path d="M25.28 7.45422H7.45892V10.6446H25.28V7.45422Z" fill="#333333"/>
<path d="M4.95865 27.4427C6.12187 27.4427 7.06488 28.3859 7.06488 29.5493C7.06488 30.7128 6.12187 31.6559 4.95865 31.6559C3.79542 31.6559 2.85242 30.7128 2.85242 29.5493C2.85242 28.3859 3.79542 27.4427 4.95865 27.4427Z" fill="#333333"/>
<path d="M21.5247 29.894C22.0386 29.894 22.4339 30.295 22.4339 30.8032C22.4339 31.3114 22.0329 31.7123 21.5247 31.7123H10.4797C9.96589 31.7123 9.57062 31.3114 9.57062 30.8032C9.57062 30.295 9.97154 29.894 10.4797 29.894H21.5247Z" fill="#989898"/>
<path d="M21.3507 25.2783V25.6792C21.3507 26.419 20.7239 27.0457 19.9842 27.0457H12.0731C11.3334 27.0457 10.7066 26.419 10.7066 25.6792V25.2783H21.3507Z" fill="#989898"/>
<path d="M18.5046 27.0475H13.496V29.8934H18.5046V27.0475Z" fill="#333333"/>
<path d="M30.4022 28.1256C30.6845 28.1256 30.916 28.3571 30.916 28.6395C30.916 28.9218 30.6845 29.1533 30.4022 29.1533C30.1198 29.1533 29.8883 28.9218 29.8883 28.6395C29.8883 28.3571 30.1198 28.1256 30.4022 28.1256Z" fill="#EEF2F6"/>
<path d="M29.7251 0C30.0074 0 30.2389 0.231516 30.2389 0.513852C30.2389 0.796188 30.0074 1.0277 29.7251 1.0277C29.4428 1.0277 29.2112 0.796188 29.2112 0.513852C29.2112 0.231516 29.4428 0 29.7251 0Z" fill="#EEF2F6"/>
<path d="M25.7946 28.4705C26.0769 28.4705 26.3084 28.702 26.3084 28.9843C26.3084 29.2666 26.0769 29.4982 25.7946 29.4982C25.5122 29.4982 25.2807 29.2666 25.2807 28.9843C25.2807 28.702 25.5122 28.4705 25.7946 28.4705Z" fill="#EEF2F6"/>
<path d="M16.5105 22.6015C16.6235 22.7144 16.7364 22.8838 16.7364 23.1153C16.7364 23.3468 16.6799 23.5162 16.5105 23.6292C16.3976 23.7421 16.2282 23.8551 15.9967 23.8551C15.6014 23.8551 15.257 23.5106 15.257 23.1153C15.257 22.9459 15.3134 22.7144 15.4828 22.6015C15.5958 22.4885 15.7652 22.3756 15.9967 22.3756C16.2282 22.3756 16.3976 22.4885 16.5105 22.6015Z" fill="#EEF2F6"/>
<path d="M15.0885 0.740112C15.3708 0.740112 15.6023 0.971628 15.6023 1.25396C15.6023 1.5363 15.3708 1.76782 15.0885 1.76782C14.8062 1.76782 14.5746 1.5363 14.5746 1.25396C14.5746 0.971628 14.8062 0.740112 15.0885 0.740112Z" fill="#EEF2F6"/>
<path d="M8.71234 26.3634C8.99467 26.3634 9.22619 26.5949 9.22619 26.8773C9.22619 27.1596 8.99467 27.3911 8.71234 27.3911C8.43 27.3911 8.19849 27.1596 8.19849 26.8773C8.19849 26.5949 8.43 26.3634 8.71234 26.3634Z" fill="#EEF2F6"/>
<path d="M4.09894 0C4.38127 0 4.61279 0.231516 4.61279 0.513852C4.61279 0.796188 4.38127 1.0277 4.09894 1.0277C3.8166 1.0277 3.58508 0.796188 3.58508 0.513852C3.58508 0.231516 3.8166 0 4.09894 0Z" fill="#EEF2F6"/>
<path d="M0.858762 27.386C1.1411 27.386 1.37261 27.6175 1.37261 27.8998C1.37261 28.1822 1.1411 28.4137 0.858762 28.4137C0.576425 28.4137 0.34491 28.1822 0.34491 27.8998C0.34491 27.6175 0.576425 27.386 0.858762 27.386Z" fill="#EEF2F6"/>
<path d="M13.4963 27.3849H12.0169C11.0513 27.3849 10.2495 26.5887 10.2495 25.6174V25.2165C10.2495 25.0471 10.4189 24.8721 10.5883 24.8721C10.7577 24.8721 10.9327 25.0415 10.9327 25.2165V25.6174C10.9327 26.1878 11.3901 26.6451 11.9548 26.6451H13.4342C13.6036 26.6451 13.773 26.8145 13.773 26.9839C13.773 27.1533 13.7165 27.3849 13.4907 27.3849H13.4963Z" fill="#EEF2F6"/>
<path d="M19.9269 27.3849H18.4475C18.2781 27.3849 18.103 27.2155 18.103 27.0404C18.103 26.8654 18.2724 26.7016 18.4475 26.7016H19.9269C20.4972 26.7016 20.949 26.2442 20.949 25.6795V25.2786C20.949 25.1092 21.1184 24.9398 21.2934 24.9398C21.4685 24.9398 21.6322 25.1092 21.6322 25.2786V25.6795C21.6887 26.5887 20.8925 27.3849 19.9269 27.3849Z" fill="#EEF2F6"/>
<path d="M18.5045 30.2319C18.3351 30.2319 18.1657 30.0625 18.1657 29.8931V27.3855H13.8968V29.8931C13.8968 30.0625 13.7274 30.2319 13.5524 30.2319C13.3773 30.2319 13.2136 30.0625 13.2136 29.8931V27.0466C13.2136 26.8772 13.383 26.7078 13.5524 26.7078H18.561C18.7304 26.7078 18.9055 26.8772 18.9055 27.0466V29.8931C18.849 30.0625 18.6796 30.2319 18.5045 30.2319Z" fill="#EEF2F6"/>
<path d="M21.5254 31.9993H10.4804C9.79719 31.9993 9.22687 31.4289 9.22687 30.7457C9.22687 30.4069 9.3398 30.1189 9.56567 29.893C9.79154 29.6672 10.136 29.5486 10.4183 29.5486H21.4633C22.1466 29.5486 22.7169 30.1189 22.7169 30.8022C22.7169 31.1466 22.604 31.4289 22.3781 31.6548C22.1522 31.8807 21.8642 31.9936 21.5254 31.9936V31.9993ZM10.4804 30.2318C10.311 30.2318 10.1981 30.2883 10.0795 30.4012C9.96094 30.5142 9.91012 30.6271 9.91012 30.8022C9.91012 31.0845 10.136 31.316 10.424 31.316H21.469C21.6384 31.316 21.7513 31.2595 21.8699 31.1466C21.9828 31.0337 22.0393 30.9207 22.0393 30.7457C22.0393 30.4634 21.8134 30.2318 21.5254 30.2318H10.4804Z" fill="#EEF2F6"/>
<path d="M4.95795 32.0002C3.59144 32.0002 2.45081 30.8593 2.45081 29.4926C2.45081 28.1258 3.59144 26.985 4.95795 26.985C6.32446 26.985 7.4651 28.1258 7.4651 29.4926C7.4651 30.8593 6.32446 32.0002 4.95795 32.0002ZM4.95795 27.7305C3.99236 27.7305 3.19053 28.5268 3.19053 29.4982C3.19053 30.4696 3.98672 31.266 4.95795 31.266C5.92919 31.266 6.71973 30.4696 6.71973 29.4982C6.71973 28.5268 5.92354 27.7305 4.95795 27.7305Z" fill="#EEF2F6"/>
<path d="M29.5488 21.3481H2.50665C2.33725 21.3481 2.16785 21.1787 2.16785 21.0093V5.34814C2.16785 5.17871 2.33725 5.00928 2.50665 5.00928H29.5488C29.7182 5.00928 29.8876 5.17871 29.8876 5.34814V21.0093C29.8876 21.1787 29.7182 21.3481 29.5488 21.3481ZM2.84545 20.6083H29.2044V5.69265H2.8511V20.6139L2.84545 20.6083Z" fill="#EEF2F6"/>
<path d="M29.3799 25.6232H2.62008C1.14064 25.6232 0 24.4259 0 23.0027V5.46087C0 3.98117 1.19711 2.84033 2.62008 2.84033H29.3799C30.8594 2.84033 32 4.03765 32 5.46087V22.997C32 24.4203 30.8594 25.6176 29.3799 25.6176V25.6232ZM2.62008 3.52935C1.53591 3.52935 0.683255 4.38216 0.683255 5.46652V23.0027C0.683255 24.087 1.53591 24.9398 2.62008 24.9398H29.3799C30.4641 24.9398 31.3167 24.087 31.3167 23.0027V5.46087C31.3167 4.37651 30.4641 3.52371 29.3799 3.52371H2.62008V3.52935Z" fill="#EEF2F6"/>
<path d="M25.2791 11.041H7.458C7.2886 11.041 7.1192 10.8715 7.1192 10.7021V7.51114C7.1192 7.34171 7.2886 7.16663 7.458 7.16663H25.2791C25.4485 7.16663 25.6179 7.33606 25.6179 7.51114V10.7021C25.6179 10.8715 25.4485 11.041 25.2791 11.041ZM7.80246 10.3011H24.8838V7.79352H7.80246V10.3011Z" fill="#EEF2F6"/>
<path d="M13.896 19.1853H7.46435C7.29495 19.1853 7.12555 19.0158 7.12555 18.8464V12.4701C7.12555 12.3007 7.29495 12.1256 7.46435 12.1256H13.896C14.0654 12.1256 14.2348 12.295 14.2348 12.4701V18.9029C14.2348 19.0158 14.0654 19.1853 13.896 19.1853ZM7.80316 18.5019H13.4951V12.809H7.80316V18.5019Z" fill="#EEF2F6"/>
<path d="M25.2801 14.5767H16.0026C15.8332 14.5767 15.6638 14.4073 15.6638 14.2322V12.4648C15.6638 12.2954 15.8332 12.1204 16.0026 12.1204H25.2801C25.4495 12.1204 25.6189 12.2898 25.6189 12.4648V14.2322C25.6189 14.4016 25.4495 14.5767 25.2801 14.5767ZM16.3414 13.8934H24.8792V12.8093H16.3414V13.8934Z" fill="#EEF2F6"/>
<path d="M25.2801 19.1857H16.0026C15.8332 19.1857 15.6638 19.0162 15.6638 18.8468V16.0004C15.6638 15.8309 15.8332 15.6615 16.0026 15.6615H25.2801C25.4495 15.6615 25.6189 15.8309 25.6189 16.0004V18.8468C25.6189 19.0162 25.4495 19.1857 25.2801 19.1857ZM16.3414 18.5023H24.8792V16.3392H16.3414V18.5023Z" fill="#EEF2F6"/>
</g>
</svg>
