<svg width="21" height="20" viewBox="0 0 21 20" fill="none" xmlns="http://www.w3.org/2000/svg">
    <path d="M3.83757 4.16911V15.8358H17.1709V4.16911H3.83757ZM3.00423 2.50244H18.0042C18.2252 2.50244 18.4372 2.59024 18.5935 2.74652C18.7498 2.9028 18.8376 3.11476 18.8376 3.33577V16.6691C18.8376 16.8901 18.7498 17.1021 18.5935 17.2584C18.4372 17.4146 18.2252 17.5024 18.0042 17.5024H3.00423C2.78322 17.5024 2.57126 17.4146 2.41498 17.2584C2.2587 17.1021 2.1709 16.8901 2.1709 16.6691V3.33577C2.1709 3.11476 2.2587 2.9028 2.41498 2.74652C2.57126 2.59024 2.78322 2.50244 3.00423 2.50244ZM10.5042 7.50244V5.00244L14.6709 9.16911H7.1709V7.50244H10.5042ZM6.33756 10.8358H13.8376V12.5024H10.5042V15.0024L6.33756 10.8358Z"
          fill="#333333"/>
</svg>
