<svg width="16" height="17" viewBox="0 0 16 17" fill="none" xmlns="http://www.w3.org/2000/svg">
    <g clip-path="url(#clip0_34_6648)">
        <path d="M11 14.5V15.75C11 16.1642 10.6642 16.5 10.25 16.5H1.75C1.33578 16.5 1 16.1642 1 15.75V4.25C1 3.83578 1.33578 3.5 1.75 3.5H4V12.75C4 13.715 4.78503 14.5 5.75 14.5H11ZM11 3.75V0.5H5.75C5.33578 0.5 5 0.835781 5 1.25V12.75C5 13.1642 5.33578 13.5 5.75 13.5H14.25C14.6642 13.5 15 13.1642 15 12.75V4.5H11.75C11.3375 4.5 11 4.1625 11 3.75ZM14.7803 2.78034L12.7197 0.719656C12.579 0.579013 12.3882 0.500001 12.1893 0.5H12V3.5H15V3.31066C15 3.11175 14.921 2.92099 14.7803 2.78034Z"
              fill="#989898"/>
    </g>
    <defs>
        <clipPath id="clip0_34_6648">
            <rect width="16" height="16" fill="white" transform="translate(0 0.5)"/>
        </clipPath>
    </defs>
</svg>
