<svg width="23" height="23" viewBox="0 0 23 23" fill="none" xmlns="http://www.w3.org/2000/svg">
<g clip-path="url(#clip0_3645_4290)">
<path d="M13.4987 13.2911C13.3856 13.1214 13.197 12.9895 12.952 12.8386C12.7069 12.7067 12.3864 12.5558 11.9905 12.405V16.1755C13.1782 16.0247 13.7815 15.4214 13.7815 14.328C13.7815 14.0829 13.7626 13.8944 13.7249 13.7436C13.6872 13.5927 13.6306 13.4608 13.4987 13.2911Z" fill="#989898"/>
<path d="M11.5 0C5.14672 0 0 5.14672 0 11.5C0 17.8533 5.14672 23 11.5 23C17.8533 23 23 17.8533 23 11.5C23 5.14672 17.8533 0 11.5 0ZM15.9492 16.0623C15.723 16.5525 15.4025 16.9484 14.9877 17.2311C14.573 17.5328 14.1205 17.759 13.6303 17.9098C13.1402 18.0795 12.5934 18.1738 11.9902 18.2115V20.059H11.0664V18.2303C10.1992 18.1926 9.38852 18.0418 8.61557 17.7779C7.84262 17.5139 7.22049 17.1557 6.76803 16.7033L7.76721 15.0066C8.16312 15.3271 8.69098 15.591 9.31312 15.8172C9.93525 16.0434 10.5197 16.1754 11.0664 16.2131V12.1033C10.991 12.0844 10.859 12.0467 10.7082 11.9902C10.5574 11.9336 10.4066 11.8959 10.2934 11.8582C10.1615 11.8205 10.0484 11.7828 9.9541 11.7451C8.8418 11.3303 8.03115 10.8213 7.52213 10.2557C7.01311 9.69016 6.76803 8.89836 6.76803 7.91803C6.76803 6.78689 7.16393 5.91967 7.95574 5.27869C8.74754 4.6377 9.78443 4.29836 11.0664 4.2418V2.90328H11.9902V4.2418C13.0082 4.27951 13.8189 4.41148 14.4221 4.6377C15.0254 4.88279 15.591 5.25984 16.1566 5.7877L14.95 7.35246C14.2148 6.65492 13.2344 6.29672 11.9902 6.25902V10.0295C12.7066 10.2746 13.159 10.4254 13.3475 10.482C14.4598 10.9156 15.2139 11.4246 15.6475 11.9902C16.0811 12.5557 16.3074 13.3475 16.3074 14.3656C16.3074 15.0254 16.1943 15.591 15.9492 16.0623Z" fill="#989898"/>
<path d="M9.29419 7.82363C9.29419 8.31379 9.4073 8.67199 9.63353 8.93592C9.85976 9.19986 10.3311 9.46379 11.0852 9.72772V6.31543C10.5385 6.39084 10.1048 6.56051 9.78435 6.80559C9.44501 7.05068 9.29419 7.39002 9.29419 7.82363Z" fill="#989898"/>
</g>
<defs>
<clipPath id="clip0_3645_4290">
<rect width="23" height="23" fill="white"/>
</clipPath>
</defs>
</svg>
