<svg width="17" height="17" viewBox="0 0 17 17" fill="none" xmlns="http://www.w3.org/2000/svg">
<path d="M16.4883 1.6812C16.4698 1.37645 16.3404 1.08902 16.1245 0.873137C15.9086 0.657252 15.6212 0.527841 15.3164 0.509322C14.3336 0.450728 11.8219 0.540572 9.73752 2.62417L9.36643 2.99995H4.8094C4.64461 2.99898 4.48127 3.0308 4.32891 3.09357C4.17654 3.15634 4.03818 3.24881 3.9219 3.36557L1.24221 6.04682C1.07787 6.21105 0.962556 6.41782 0.909202 6.64394C0.855848 6.87006 0.866567 7.10658 0.940158 7.32695C1.01375 7.54731 1.1473 7.74281 1.32582 7.89149C1.50434 8.04018 1.72076 8.13617 1.9508 8.1687L4.95627 8.58823L8.41018 12.0421L8.82971 15.0492C8.86197 15.2792 8.95794 15.4957 9.10677 15.674C9.25559 15.8524 9.45135 15.9856 9.6719 16.0585C9.80035 16.1015 9.9349 16.1234 10.0703 16.1234C10.2343 16.1237 10.3968 16.0916 10.5483 16.0289C10.6998 15.9661 10.8374 15.874 10.9531 15.7578L13.6344 13.0781C13.7512 12.9618 13.8436 12.8234 13.9064 12.6711C13.9692 12.5187 14.001 12.3554 14 12.1906V7.63354L14.3727 7.26088C16.4571 5.17651 16.5469 2.66479 16.4883 1.6812ZM4.8094 4.24995H8.11643L5.02815 7.33745L2.12502 6.93276L4.8094 4.24995ZM10.6227 3.51167C11.2232 2.9074 11.9458 2.43823 12.7422 2.13551C13.5385 1.83278 14.3903 1.70347 15.2406 1.7562C15.2954 2.60696 15.1674 3.4596 14.8653 4.25679C14.5632 5.05399 14.094 5.77729 13.4891 6.37807L9.00002 10.8656L6.1344 7.99995L10.6227 3.51167ZM12.75 12.1906L10.068 14.8749L9.66252 11.971L12.75 8.88354V12.1906ZM6.95627 12.9328C6.60471 13.7031 5.42893 15.4999 2.12502 15.4999C1.95926 15.4999 1.80029 15.4341 1.68308 15.3169C1.56587 15.1997 1.50002 15.0407 1.50002 14.8749C1.50002 11.571 3.2969 10.3953 4.06721 10.0429C4.1419 10.0089 4.22257 9.98984 4.30461 9.98695C4.38664 9.98406 4.46845 9.99736 4.54535 10.0261C4.62225 10.0548 4.69273 10.0984 4.75278 10.1544C4.81283 10.2104 4.86127 10.2776 4.89534 10.3523C4.9294 10.427 4.94841 10.5076 4.9513 10.5897C4.95419 10.6717 4.94089 10.7535 4.91216 10.8304C4.88343 10.9073 4.83984 10.9778 4.78387 11.0379C4.7279 11.0979 4.66065 11.1464 4.58596 11.1804C4.08362 11.4093 2.97502 12.146 2.77971 14.2203C4.85393 14.0249 5.59221 12.9164 5.81955 12.414C5.85362 12.3393 5.90206 12.2721 5.96211 12.2161C6.02216 12.1601 6.09265 12.1165 6.16954 12.0878C6.24644 12.0591 6.32825 12.0458 6.41028 12.0487C6.49232 12.0516 6.57299 12.0706 6.64768 12.1046C6.72237 12.1387 6.78962 12.1871 6.84559 12.2472C6.90156 12.3072 6.94515 12.3777 6.97388 12.4546C7.00261 12.5315 7.01591 12.6133 7.01302 12.6954C7.01013 12.7774 6.99112 12.8581 6.95705 12.9328H6.95627Z" fill="#333333"/>
</svg>
