<svg width="20" height="21" viewBox="0 0 20 21" fill="none" xmlns="http://www.w3.org/2000/svg">
<g clip-path="url(#clip0_4597_9076)">
<path d="M7.50008 16.3329C3.33341 17.5829 3.33341 14.2495 1.66675 13.8329M13.3334 18.8329V15.6079C13.3647 15.2105 13.311 14.811 13.1759 14.436C13.0409 14.061 12.8275 13.7191 12.5501 13.4329C15.1667 13.1412 17.9167 12.1495 17.9167 7.59954C17.9165 6.43606 17.469 5.31721 16.6667 4.47454C17.0466 3.45663 17.0198 2.3315 16.5917 1.33287C16.5917 1.33287 15.6084 1.04121 13.3334 2.56621C11.4234 2.04856 9.41007 2.04856 7.50008 2.56621C5.22508 1.04121 4.24175 1.33287 4.24175 1.33287C3.81373 2.3315 3.78687 3.45663 4.16675 4.47454C3.35852 5.32346 2.91052 6.45243 2.91675 7.62454C2.91675 12.1412 5.66675 13.1329 8.28341 13.4579C8.00925 13.7412 7.7978 14.079 7.66284 14.4495C7.52788 14.8199 7.47242 15.2146 7.50008 15.6079V18.8329" stroke="black" stroke-width="2" stroke-linecap="round" stroke-linejoin="round"/>
</g>
<defs>
<clipPath id="clip0_4597_9076">
<rect width="20" height="20" fill="white" transform="translate(0 0.5)"/>
</clipPath>
</defs>
</svg>
