<svg width="21" height="20" viewBox="0 0 21 20" fill="none" xmlns="http://www.w3.org/2000/svg">
    <path d="M18 16.6667C18 16.8877 17.9122 17.0997 17.7559 17.2559C17.5996 17.4122 17.3877 17.5 17.1667 17.5H3.83333C3.61232 17.5 3.40036 17.4122 3.24408 17.2559C3.0878 17.0997 3 16.8877 3 16.6667V7.90836C2.99991 7.78137 3.02885 7.65604 3.0846 7.54194C3.14035 7.42784 3.22143 7.32799 3.32167 7.25002L9.98833 2.06419C10.1346 1.95039 10.3147 1.88861 10.5 1.88861C10.6853 1.88861 10.8654 1.95039 11.0117 2.06419L17.6783 7.25002C17.7786 7.32799 17.8597 7.42784 17.9154 7.54194C17.9712 7.65604 18.0001 7.78137 18 7.90836V16.6667ZM16.3333 15.8334V8.31502L10.5 3.77836L4.66667 8.31502V15.8334H16.3333Z"
          fill="black"/>
</svg>
