<svg width="13" height="13" viewBox="0 0 13 13" fill="none" xmlns="http://www.w3.org/2000/svg">
    <path d="M0.999737 4.03031H10.1764L9.04697 4.87739C8.97281 4.93301 8.91034 5.00269 8.86311 5.08246C8.81588 5.16222 8.78482 5.25051 8.77171 5.34228C8.7586 5.43405 8.76369 5.5275 8.7867 5.6173C8.80971 5.7071 8.85017 5.79149 8.90579 5.86565C8.96141 5.93981 9.0311 6.00229 9.11086 6.04952C9.19063 6.09675 9.27892 6.1278 9.37068 6.14091C9.46245 6.15402 9.5559 6.14893 9.6457 6.12592C9.7355 6.10291 9.81989 6.06245 9.89405 6.00683L12.7176 3.88913C12.804 3.82326 12.874 3.73835 12.9221 3.64101C12.9703 3.54368 12.9953 3.43654 12.9953 3.32794C12.9953 3.21934 12.9703 3.11221 12.9221 3.01488C12.874 2.91754 12.804 2.83263 12.7176 2.76675L9.99288 0.649059C9.84498 0.533921 9.6574 0.482254 9.4714 0.505421C9.2854 0.528587 9.11623 0.624692 9.00109 0.772592C8.88595 0.920492 8.83428 1.10807 8.85745 1.29407C8.88062 1.48007 8.97672 1.64924 9.12462 1.76438L10.2329 2.61852H0.999737C0.812521 2.61852 0.632973 2.69289 0.500591 2.82527C0.36821 2.95765 0.293839 3.1372 0.293839 3.32441C0.293839 3.51163 0.36821 3.69118 0.500591 3.82356C0.632973 3.95594 0.812521 4.03031 0.999737 4.03031ZM12.2941 8.9716H3.11743L4.24687 8.12452C4.39664 8.01219 4.49566 7.84497 4.52213 7.65963C4.54861 7.4743 4.50038 7.28604 4.38805 7.13626C4.27572 6.98649 4.10849 6.88748 3.92316 6.861C3.73782 6.83452 3.54956 6.88275 3.39979 6.99508L0.576198 9.11278C0.489862 9.17865 0.419889 9.26356 0.371725 9.3609C0.323561 9.45823 0.298504 9.56537 0.298504 9.67397C0.298504 9.78257 0.323561 9.8897 0.371725 9.98704C0.419889 10.0844 0.489862 10.1693 0.576198 10.2352L3.30096 12.3528C3.40517 12.4333 3.52981 12.483 3.66078 12.4964C3.79176 12.5097 3.92386 12.4862 4.04216 12.4284C4.13891 12.3806 4.22343 12.3113 4.28922 12.2258C4.40385 12.0786 4.45558 11.8921 4.43309 11.7069C4.41061 11.5217 4.31574 11.353 4.16922 11.2375L3.06096 10.3834H12.2941C12.4813 10.3834 12.6609 10.309 12.7933 10.1766C12.9256 10.0443 13 9.86471 13 9.6775C13 9.49028 12.9256 9.31073 12.7933 9.17835C12.6609 9.04597 12.4813 8.9716 12.2941 8.9716Z"
          fill="#989898"/>
</svg>
