<svg width="15" height="16" viewBox="0 0 15 16" fill="none" xmlns="http://www.w3.org/2000/svg">
<path d="M13.3444 7.10005H8.18264V1.70005C8.18264 1.46135 8.092 1.23244 7.93066 1.06365C7.76932 0.89487 7.5505 0.800049 7.32234 0.800049C7.09417 0.800049 6.87535 0.89487 6.71401 1.06365C6.55268 1.23244 6.46204 1.46135 6.46204 1.70005V7.10005H1.30024C1.07208 7.10005 0.853255 7.19487 0.691917 7.36365C0.53058 7.53244 0.439941 7.76135 0.439941 8.00005C0.439941 8.23874 0.53058 8.46766 0.691917 8.63644C0.853255 8.80523 1.07208 8.90005 1.30024 8.90005H6.46204V14.3C6.46204 14.5387 6.55268 14.7677 6.71401 14.9364C6.87535 15.1052 7.09417 15.2 7.32234 15.2C7.5505 15.2 7.76932 15.1052 7.93066 14.9364C8.092 14.7677 8.18264 14.5387 8.18264 14.3V8.90005H13.3444C13.5726 8.90005 13.7914 8.80523 13.9528 8.63644C14.1141 8.46766 14.2047 8.23874 14.2047 8.00005C14.2047 7.76135 14.1141 7.53244 13.9528 7.36365C13.7914 7.19487 13.5726 7.10005 13.3444 7.10005Z" fill="#333333"/>
</svg>
