<svg width="15" height="15" viewBox="0 0 15 15" fill="none" xmlns="http://www.w3.org/2000/svg">
<path d="M8.86319 1.06635C8.35569 0.558855 7.53319 0.558855 7.02569 1.06635L1.32594 6.76698C0.818438 7.27448 0.818438 8.09611 1.32594 8.60273L7.02744 14.3042C7.53494 14.8117 8.35656 14.8117 8.86319 14.3042L14.5647 8.60273C15.0722 8.09523 15.0722 7.2736 14.5647 6.76698L8.86319 1.06635ZM5.75256 5.9646C5.72436 5.96499 5.69637 5.95961 5.67031 5.94881C5.64426 5.938 5.62068 5.92199 5.60102 5.90176C5.58137 5.88153 5.56604 5.8575 5.55599 5.83115C5.54594 5.80479 5.54137 5.77666 5.54256 5.74848C5.62569 4.26535 6.83931 3.74823 7.94881 3.74823C9.17031 3.74823 10.2868 4.38698 10.2868 5.70823C10.2868 6.65323 9.73119 7.10298 9.19831 7.5081C8.55344 7.99723 8.31456 8.18011 8.31456 8.80836V8.90023C8.31456 8.95825 8.29151 9.01389 8.25049 9.05491C8.20947 9.09593 8.15383 9.11898 8.09581 9.11898H7.38706C7.32965 9.11899 7.27453 9.09642 7.23361 9.05615C7.19268 9.01588 7.16923 8.96114 7.16831 8.90373L7.16481 8.71385C7.13156 7.90273 7.59794 7.40311 8.18681 6.97523C8.70306 6.58673 9.03119 6.33123 9.03119 5.7756C9.03119 5.05373 8.48169 4.7536 7.88144 4.7536C7.17881 4.7536 6.78506 5.17185 6.70719 5.74585C6.69144 5.86573 6.59519 5.9646 6.47444 5.9646H5.75256ZM7.78694 11.6022C7.27594 11.6022 6.90406 11.2575 6.90406 10.7911C6.90406 10.3081 7.27594 9.96861 7.78781 9.96861C8.32069 9.96861 8.68731 10.3081 8.68731 10.7911C8.68731 11.2575 8.31981 11.6022 7.78694 11.6022Z" fill="#FAFAFA"/>
</svg>
