<svg width="20" height="21" viewBox="0 0 20 21" fill="none" xmlns="http://www.w3.org/2000/svg">
    <path d="M7.50004 13.0034L12.5 8.00341M9.1667 5.50341L9.55254 5.05674C10.334 4.27535 11.3939 3.83641 12.4991 3.83649C13.6042 3.83656 14.6641 4.27565 15.4455 5.05716C16.2268 5.83866 16.6658 6.89857 16.6657 8.0037C16.6656 9.10884 16.2265 10.1687 15.445 10.9501L15 11.3367M10.8334 15.5034L10.5025 15.9484C9.71191 16.7302 8.64486 17.1687 7.53295 17.1687C6.42105 17.1687 5.354 16.7302 4.56337 15.9484C4.17367 15.5631 3.86428 15.1043 3.65313 14.5985C3.44198 14.0928 3.33325 13.5502 3.33325 13.0022C3.33325 12.4541 3.44198 11.9115 3.65313 11.4058C3.86428 10.9001 4.17367 10.4412 4.56337 10.0559L5.00004 9.67007"
          stroke="#333333" stroke-width="2" stroke-linecap="round" stroke-linejoin="round"/>
</svg>
