<svg width="21" height="20" viewBox="0 0 21 20" fill="none" xmlns="http://www.w3.org/2000/svg">
    <path d="M7.9375 12.2V7.42499H8.975V12.2H7.9375ZM10.0063 12.2V7.42499H11.0625V12.2H10.0063ZM12.1 12.2V7.42499H13.1125V12.2H12.1Z"
          fill="black"/>
    <path d="M10.5 16.875C14.2969 16.875 17.375 13.7969 17.375 10C17.375 6.20312 14.2969 3.125 10.5 3.125C6.70312 3.125 3.625 6.20312 3.625 10C3.625 13.7969 6.70312 16.875 10.5 16.875ZM14.7062 13.2125C14.775 13.4312 14.6125 13.65 14.3937 13.6562H6.6125C6.39375 13.6562 6.23125 13.4438 6.29375 13.2312L6.5125 12.45C6.55 12.3062 6.68125 12.2063 6.83125 12.2063H6.9V7.35C6.6375 7.175 6.5875 6.74375 6.9125 6.55L10.2875 4.5125C10.4375 4.41875 10.625 4.41875 10.775 4.5125L14.1438 6.55C14.4688 6.74375 14.4187 7.175 14.15 7.35V12.2H14.1312C14.275 12.2 14.4062 12.2937 14.45 12.4312L14.7062 13.2125Z"
          fill="black"/>
    <path d="M10.5 0.625C5.3225 0.625 1.125 4.8225 1.125 10C1.125 15.1775 5.3225 19.375 10.5 19.375C15.6775 19.375 19.875 15.1775 19.875 10C19.875 4.8225 15.6775 0.625 10.5 0.625ZM2.375 10C2.375 5.5125 6.0125 1.875 10.5 1.875C14.9875 1.875 18.625 5.5125 18.625 10C18.625 14.4875 14.9875 18.125 10.5 18.125C6.0125 18.125 2.375 14.4875 2.375 10Z"
          fill="black"/>
</svg>
