<svg width="25" height="24" viewBox="0 0 25 24" fill="none" xmlns="http://www.w3.org/2000/svg">
    <path d="M17.372 5.29244C17.2795 5.19974 17.1696 5.12619 17.0486 5.07601C16.9277 5.02583 16.798 5 16.667 5C16.536 5 16.4064 5.02583 16.2854 5.07601C16.1644 5.12619 16.0545 5.19974 15.962 5.29244L12.082 9.17244L8.20201 5.29244C8.01503 5.10547 7.76144 5.00042 7.49701 5.00042C7.23258 5.00042 6.97899 5.10547 6.79201 5.29244C6.60503 5.47942 6.49999 5.73302 6.49999 5.99744C6.49999 6.26187 6.60503 6.51547 6.79201 6.70244L11.382 11.2924C11.4745 11.3851 11.5844 11.4587 11.7054 11.5089C11.8264 11.5591 11.956 11.5849 12.087 11.5849C12.218 11.5849 12.3477 11.5591 12.4686 11.5089C12.5896 11.4587 12.6995 11.3851 12.792 11.2924L17.382 6.70244C17.762 6.32244 17.762 5.68244 17.372 5.29244Z"
          fill="#333333"/>
    <path d="M17.372 12.8774C17.2795 12.7847 17.1696 12.7112 17.0486 12.661C16.9277 12.6108 16.798 12.585 16.667 12.585C16.536 12.585 16.4064 12.6108 16.2854 12.661C16.1644 12.7112 16.0545 12.7847 15.962 12.8774L12.082 16.7574L8.20201 12.8774C8.01503 12.6904 7.76144 12.5854 7.49701 12.5854C7.23258 12.5854 6.97899 12.6904 6.79201 12.8774C6.60503 13.0644 6.49999 13.318 6.49999 13.5824C6.49999 13.8468 6.60503 14.1004 6.79201 14.2874L11.382 18.8774C11.4745 18.9701 11.5844 19.0437 11.7054 19.0938C11.8264 19.144 11.956 19.1698 12.087 19.1698C12.218 19.1698 12.3477 19.144 12.4686 19.0938C12.5896 19.0437 12.6995 18.9701 12.792 18.8774L17.382 14.2874C17.762 13.9074 17.762 13.2674 17.372 12.8774Z"
          fill="#333333"/>
</svg>
