<svg width="33" height="32" viewBox="0 0 33 32" fill="none" xmlns="http://www.w3.org/2000/svg">
<path d="M27.1666 16V7.66533C27.1667 7.56008 27.146 7.45585 27.1058 7.35861C27.0655 7.26138 27.0064 7.17304 26.932 7.09866L22.7346 2.90133C22.5848 2.75126 22.3814 2.66685 22.1693 2.66666H6.63331C6.42114 2.66666 6.21766 2.75095 6.06763 2.90098C5.9176 3.05101 5.83331 3.25449 5.83331 3.46666V28.5333C5.83331 28.7455 5.9176 28.949 6.06763 29.099C6.21766 29.249 6.42114 29.3333 6.63331 29.3333H15.1666M11.1666 13.3333H21.8333M11.1666 8H16.5M11.1666 18.6667H15.1666M27.8333 27.3333L29.8333 29.3333" stroke="#989898" stroke-width="3" stroke-linecap="round" stroke-linejoin="round"/>
<path d="M21.8333 2.66666V7.2C21.8333 7.41217 21.9176 7.61565 22.0676 7.76568C22.2177 7.91571 22.4212 8 22.6333 8H27.1667M20.5 24C20.5 25.0609 20.9214 26.0783 21.6716 26.8284C22.4217 27.5786 23.4391 28 24.5 28C25.5609 28 26.5783 27.5786 27.3284 26.8284C28.0786 26.0783 28.5 25.0609 28.5 24C28.5 22.9391 28.0786 21.9217 27.3284 21.1716C26.5783 20.4214 25.5609 20 24.5 20C23.4391 20 22.4217 20.4214 21.6716 21.1716C20.9214 21.9217 20.5 22.9391 20.5 24Z" stroke="#989898" stroke-width="3" stroke-linecap="round" stroke-linejoin="round"/>
</svg>
