<svg width="20" height="20" viewBox="0 0 20 20" fill="none" xmlns="http://www.w3.org/2000/svg">
<path d="M18.3334 16.6666H1.66669V15H2.50002V9.19246C2.50002 5.03579 5.85835 1.66663 10 1.66663C14.1417 1.66663 17.5 5.03579 17.5 9.19246V15H18.3334V16.6666ZM4.16669 15H15.8334V9.19246C15.8334 5.95663 13.2217 3.33329 10 3.33329C6.77835 3.33329 4.16669 5.95663 4.16669 9.19246V15ZM7.91669 17.5H12.0834C12.0834 18.0525 11.8639 18.5824 11.4732 18.9731C11.0825 19.3638 10.5526 19.5833 10 19.5833C9.44749 19.5833 8.91758 19.3638 8.52688 18.9731C8.13618 18.5824 7.91669 18.0525 7.91669 17.5Z" fill="#333333"/>
</svg>
