<svg width="21" height="20" viewBox="0 0 21 20" fill="none" xmlns="http://www.w3.org/2000/svg">
<path d="M14.1962 15.1047L16.5477 12.7896L16.0293 12.2705L14.1962 14.078L13.4054 13.2707L12.8863 13.794L14.1962 15.1047ZM5.41855 5.91726H14.0811V5.08926H5.41772L5.41855 5.91726ZM14.717 17C13.7946 17 13.0121 16.6785 12.3696 16.0354C11.7265 15.3929 11.405 14.6104 11.405 13.688C11.405 12.7656 11.7265 11.9829 12.3696 11.3398C13.0127 10.6967 13.7951 10.3755 14.717 10.376C15.6388 10.3766 16.4215 10.6978 17.0652 11.3398C17.7088 11.9818 18.0301 12.7645 18.029 13.688C18.029 14.6098 17.7077 15.3923 17.0652 16.0354C16.4215 16.6785 15.6388 17 14.717 17ZM3.125 15.8847V3.33804C3.125 2.9671 3.25527 2.65136 3.51581 2.39081C3.77636 2.13027 4.0921 2 4.46304 2H15.0357C15.4056 2 15.721 2.13027 15.9821 2.39081C16.2427 2.65136 16.373 2.9671 16.373 3.33804V8.25966C16.2383 8.20998 16.1047 8.16748 15.9722 8.13215C15.8392 8.09682 15.6968 8.06922 15.545 8.04935V3.33804C15.545 3.21053 15.492 3.09351 15.386 2.98697C15.28 2.88044 15.163 2.82745 15.0349 2.828H4.46304C4.33553 2.828 4.21851 2.88099 4.11197 2.98697C4.00544 3.09296 3.95245 3.20998 3.953 3.33804V14.4614H9.20581C9.24335 14.6877 9.29192 14.909 9.35154 15.1254C9.41171 15.3418 9.49534 15.5482 9.60242 15.7448L9.57427 15.7729L8.63449 15.089L7.52001 15.8847L6.40553 15.089L5.29104 15.8847L4.17573 15.089L3.125 15.8847ZM5.41855 12.1587H9.31759C9.3485 12.0069 9.38659 11.8648 9.43186 11.7323C9.47712 11.5998 9.53011 11.4659 9.59083 11.3307H5.41855V12.1587ZM5.41855 9.03798H11.4712C11.7417 8.82435 12.0315 8.64633 12.3406 8.50392C12.6497 8.36095 12.9801 8.26297 13.3317 8.20998H5.41772L5.41855 9.03798Z" fill="#333333"/>
</svg>
