<svg width="21" height="20" viewBox="0 0 21 20" fill="none" xmlns="http://www.w3.org/2000/svg">
<path d="M14.077 9.0881C13.9593 8.96879 13.7991 8.9011 13.6316 8.89992C13.464 8.89874 13.3029 8.96416 13.1836 9.0818C13.0642 9.19944 12.9966 9.35966 12.9954 9.52721C12.9942 9.69476 13.0596 9.85591 13.1773 9.97522L15.5178 12.3409H4.26198C4.09511 12.3409 3.93508 12.4072 3.81709 12.5252C3.6991 12.6432 3.63281 12.8032 3.63281 12.9701C3.63281 13.1369 3.6991 13.2969 3.81709 13.4149C3.93508 13.5329 4.09511 13.5992 4.26198 13.5992H15.5178L13.1773 15.9271C13.119 15.9858 13.0729 16.0554 13.0415 16.1318C13.0102 16.2083 12.9942 16.2902 12.9945 16.3729C12.9947 16.4556 13.0113 16.5374 13.0432 16.6137C13.0751 16.6899 13.1217 16.7592 13.1804 16.8174C13.2391 16.8757 13.3086 16.9218 13.3851 16.9531C13.4616 16.9845 13.5435 17.0005 13.6262 17.0002C13.7089 16.9999 13.7907 16.9833 13.8669 16.9514C13.9432 16.9195 14.0124 16.8729 14.0707 16.8143L17.9149 12.9701L14.077 9.0881Z" fill="#333333"/>
<path d="M7.66591 10.1072C7.79088 10.1079 7.91323 10.0714 8.01737 10.0023C8.12151 9.93321 8.20272 9.83468 8.25064 9.71927C8.29856 9.60385 8.31103 9.47678 8.28645 9.35425C8.26186 9.23172 8.20135 9.11929 8.11262 9.03128L5.77841 6.6782H17.0279C17.1948 6.6782 17.3548 6.61192 17.4728 6.49393C17.5908 6.37593 17.6571 6.2159 17.6571 6.04904C17.6571 5.88217 17.5908 5.72214 17.4728 5.60415C17.3548 5.48616 17.1948 5.41987 17.0279 5.41987H5.77841L8.11262 3.07308C8.17087 3.01442 8.21699 2.94486 8.24836 2.86837C8.27973 2.79188 8.29572 2.70996 8.29543 2.6273C8.29514 2.54463 8.27856 2.46282 8.24666 2.38656C8.21475 2.31029 8.16814 2.24106 8.10947 2.18281C8.05081 2.12456 7.98125 2.07844 7.90476 2.04707C7.82827 2.01571 7.74636 1.99971 7.66369 2C7.49673 2.00059 7.33684 2.06748 7.2192 2.18596L3.375 6.04904L7.2192 9.91212C7.27695 9.97271 7.3462 10.0212 7.4229 10.0547C7.49961 10.0881 7.58222 10.106 7.66591 10.1072Z" fill="#333333"/>
</svg>
