<svg width="21" height="20" viewBox="0 0 21 20" fill="none" xmlns="http://www.w3.org/2000/svg">
<path d="M1.7915 10C1.7915 6.46417 1.7915 4.69667 3.0115 3.59833C4.23317 2.5 6.1965 2.5 10.1248 2.5C14.0532 2.5 16.0173 2.5 17.2373 3.59833C18.4573 4.69667 18.4582 6.465 18.4582 10C18.4582 13.535 18.4582 15.3033 17.2373 16.4017C16.0182 17.5 14.0532 17.5 10.1248 17.5C6.1965 17.5 4.23234 17.5 3.0115 16.4017C1.79067 15.3033 1.7915 13.535 1.7915 10Z" stroke="#333333" stroke-width="1.25" stroke-linecap="round" stroke-linejoin="round"/>
<path d="M5.125 13.3332H8.45833M11.7917 6.6665H15.125M11.7917 9.99984H15.125M11.7917 13.3332H15.125M7.125 6.6665H6.45833C5.83 6.6665 5.51583 6.6665 5.32 6.8615C5.125 7.05817 5.125 7.3715 5.125 7.99984V8.6665C5.125 9.29484 5.125 9.609 5.32 9.80484C5.51667 9.99984 5.83 9.99984 6.45833 9.99984H7.125C7.75333 9.99984 8.0675 9.99984 8.26333 9.80484C8.45833 9.60817 8.45833 9.29484 8.45833 8.6665V7.99984C8.45833 7.3715 8.45833 7.05734 8.26333 6.8615C8.06667 6.6665 7.75333 6.6665 7.125 6.6665Z" stroke="#333333" stroke-width="1.25" stroke-linecap="round" stroke-linejoin="round"/>
</svg>
