<svg width="21" height="20" viewBox="0 0 21 20" fill="none" xmlns="http://www.w3.org/2000/svg">
<path d="M15.1727 3.18018H18.7086V12.0202H18.7036C18.6563 12.9633 18.3456 13.8742 17.8069 14.6497C17.2681 15.4252 16.5228 16.0342 15.6555 16.4076C14.7882 16.7811 13.8337 16.904 12.9001 16.7624C11.9664 16.6209 11.0912 16.2206 10.3736 15.6068C9.30709 14.7087 8.6403 13.4242 8.5194 12.0352V11.2727C8.41219 10.9632 8.20768 10.6967 7.93646 10.5132C7.66524 10.3296 7.34187 10.2387 7.01472 10.2542C6.68757 10.2696 6.37421 10.3906 6.1215 10.5989C5.86879 10.8072 5.69032 11.0918 5.61276 11.41C5.5352 11.7282 5.56273 12.0629 5.69123 12.3642C5.81973 12.6655 6.0423 12.917 6.32565 13.0813C6.609 13.2455 6.93791 13.3136 7.26319 13.2754C7.58847 13.2372 7.89265 13.0948 8.13023 12.8693C8.39031 14.0589 9.01764 15.1366 9.92357 15.9502C9.14369 16.4777 8.2319 16.7768 7.29108 16.8137C6.35026 16.8506 5.41785 16.6238 4.59907 16.1589C3.78028 15.6941 3.10771 15.0096 2.65723 14.1829C2.20675 13.3561 1.99629 12.4198 2.04961 11.4798C2.10293 10.5398 2.4179 9.63336 2.95899 8.86282C3.50007 8.09228 4.24573 7.48829 5.11183 7.119C5.97793 6.74971 6.92999 6.62982 7.86061 6.77286C8.79122 6.9159 9.66334 7.31617 10.3786 7.92851C11.1878 8.6007 11.7801 9.49718 12.0811 10.5052C12.1977 10.9085 12.1411 11.3485 12.1411 11.7677C12.1541 12.161 12.3195 12.5339 12.6024 12.8075C12.8852 13.0811 13.2634 13.2341 13.6569 13.2341C14.0504 13.2341 14.4286 13.0811 14.7114 12.8075C14.9943 12.5339 15.1597 12.161 15.1727 11.7677V3.18018Z" fill="#333333"/>
<path d="M14.6665 6.81642C14.0007 6.68229 13.3148 6.68295 12.6492 6.81835C11.9837 6.95375 11.352 7.22115 10.7915 7.60476C11.7112 8.39979 12.3583 9.46335 12.6415 10.6456C12.9179 10.3935 13.278 10.253 13.6521 10.2511C14.0262 10.2493 14.3876 10.3863 14.6665 10.6356V6.81642Z" fill="#333333"/>
</svg>
