<svg width="121" height="120" viewBox="0 0 121 120" fill="none" xmlns="http://www.w3.org/2000/svg">
<path d="M83 101.925L73.2875 92.2129L68 97.5004L83 112.5L113 82.5004L107.713 77.2129L83 101.925Z" fill="#26A670"/>
<path d="M94.25 18.75H83V15C82.9941 13.0127 82.202 11.1085 80.7967 9.70326C79.3915 8.29802 77.4873 7.50594 75.5 7.5H45.5C43.5127 7.50594 41.6085 8.29802 40.2033 9.70326C38.798 11.1085 38.0059 13.0127 38 15V18.75H26.75C24.7627 18.7559 22.8585 19.548 21.4533 20.9533C20.048 22.3585 19.2559 24.2627 19.25 26.25V105C19.2559 106.987 20.048 108.892 21.4533 110.297C22.8585 111.702 24.7627 112.494 26.75 112.5H60.5V105H26.75V26.25H38V37.5H83V26.25H94.25V67.5H101.75V26.25C101.744 24.2627 100.952 22.3585 99.5467 20.9533C98.1415 19.548 96.2373 18.7559 94.25 18.75ZM75.5 30H45.5V15H75.5V30Z" fill="#26A670"/>
</svg>
