<svg width="48" height="46" viewBox="0 0 48 46" fill="none" xmlns="http://www.w3.org/2000/svg">
<g opacity="0.2">
<path d="M44.1056 38.7153C45.9116 38.7153 47.3757 40.1794 47.3757 41.9855C47.3757 43.7915 45.9116 45.2556 44.1056 45.2556C42.2996 45.2556 40.8354 43.7915 40.8354 41.9855C40.8354 40.1794 42.2996 38.7153 44.1056 38.7153Z" fill="#989898"/>
<path d="M4.86685 3.27051C6.10301 3.27051 7.07616 4.24366 7.07616 5.47982C7.07616 6.71599 6.10301 7.68914 4.86685 7.68914C3.63068 7.68914 2.65753 6.71599 2.65753 5.47982C2.65753 4.24366 3.71835 3.27051 4.86685 3.27051Z" fill="#989898"/>
<path d="M41.3686 22.3625C41.9034 28.3768 39.247 34.2946 34.2935 37.9154L24.2201 45.2535L14.1467 37.9154C9.19327 34.3822 6.5456 28.4557 7.07163 22.3625L7.6941 12.3768C10.6135 12.3768 13.0859 9.54499 13.2612 6.54663H35.179C35.3544 9.46608 37.8267 12.3768 40.7461 12.3768L41.3686 22.3625Z" fill="#333333"/>
<path d="M30.2053 32.4091L34.7685 29.5571L30.2053 26.7051V32.4091ZM17.9417 19.2899H31.6313V17.0083H17.9417V19.2899ZM31.6313 35.2611C30.0532 35.2611 28.7078 34.7047 27.5951 33.5921C26.4825 32.4794 25.9265 31.1344 25.9273 29.5571C25.9273 27.979 26.4836 26.6336 27.5963 25.5209C28.7089 24.4082 30.0539 23.8523 31.6313 23.8531C33.2094 23.8531 34.5548 24.4094 35.6674 25.5221C36.7801 26.6347 37.336 27.9797 37.3353 29.5571C37.3353 31.1352 36.7789 32.4805 35.6663 33.5932C34.5536 34.7059 33.2086 35.2618 31.6313 35.2611ZM14.5193 34.1203V12.4451H35.0537V22.3415C34.5213 22.0753 33.965 21.8802 33.3847 21.7563C32.8044 21.6323 32.2199 21.5707 31.6313 21.5715H17.9417V23.8531H26.0414C25.7181 24.1763 25.4189 24.528 25.1436 24.9083C24.8682 25.2886 24.6256 25.6974 24.4157 26.1347H17.9417V28.4163H23.7312C23.6932 28.6064 23.6693 28.792 23.6594 28.973C23.6495 29.154 23.6449 29.3487 23.6457 29.5571C23.6457 30.3556 23.7552 31.1211 23.9742 31.8535C24.1933 32.5859 24.5211 33.2844 24.9576 33.9491L24.7865 34.1203L23.0753 32.4091L21.3641 34.1203L19.6529 32.4091L17.9417 34.1203L16.2305 32.4091L14.5193 34.1203Z" fill="#EEF2F6"/>
<path d="M47.2022 4.95312C47.6405 4.95312 48 5.31258 48 5.75093C48 6.18929 47.6405 6.54874 47.2022 6.54874C46.7638 6.54874 46.4044 6.18929 46.4044 5.75093C46.4044 5.31258 46.7638 4.95312 47.2022 4.95312Z" fill="#989898"/>
<path d="M44.3826 27.0535C44.8209 27.0535 45.1804 27.4129 45.1804 27.8513C45.1804 28.2896 44.8209 28.6491 44.3826 28.6491C43.9442 28.6491 43.5848 28.2896 43.5848 27.8513C43.5848 27.4129 43.9442 27.0535 44.3826 27.0535Z" fill="#989898"/>
<path d="M33.9469 44.2061C34.3852 44.2061 34.7447 44.5655 34.7447 45.0039C34.7447 45.4422 34.3852 45.8017 33.9469 45.8017C33.5085 45.8017 33.149 45.4422 33.149 45.0039C33.149 44.5655 33.5085 44.2061 33.9469 44.2061Z" fill="#989898"/>
<path d="M15.1118 0C15.5502 0 15.9096 0.359452 15.9096 0.797808C15.9096 1.23616 15.5502 1.59562 15.1118 1.59562C14.6735 1.59562 14.314 1.23616 14.314 0.797808C14.314 0.359452 14.6735 0 15.1118 0Z" fill="#989898"/>
<path d="M6.81508 42.5208C7.25344 42.5208 7.61289 42.8802 7.61289 43.3186C7.61289 43.7569 7.25344 44.1164 6.81508 44.1164C6.37672 44.1164 6.01727 43.7569 6.01727 43.3186C6.01727 42.8802 6.37672 42.5208 6.81508 42.5208Z" fill="#989898"/>
<path d="M0.797808 22.627C1.23616 22.627 1.59562 22.9864 1.59562 23.4248C1.59562 23.8631 1.23616 24.2226 0.797808 24.2226C0.359452 24.2226 0 23.8631 0 23.4248C0 22.9864 0.359452 22.627 0.797808 22.627Z" fill="#989898"/>
<path d="M24.2168 45.7904C24.1291 45.7904 23.9537 45.7904 23.8661 45.7027L13.7927 38.3646C11.3203 36.5937 9.28635 34.1213 8.05019 31.2896C6.81402 28.4578 6.27923 25.3717 6.55101 22.3646L7.17347 12.3789C7.17347 12.1159 7.43649 11.8528 7.6995 11.8528C10.1718 11.8528 12.5653 9.38051 12.7406 6.54873C12.7406 6.28572 13.0036 6.02271 13.2666 6.02271H35.1844C35.4474 6.02271 35.7105 6.28572 35.7105 6.54873C35.8858 9.38051 38.1828 11.8528 40.7516 11.8528C41.0146 11.8528 41.2776 12.1159 41.2776 12.3789L41.9 22.3646C42.1631 25.4594 41.637 28.5542 40.4009 31.2896C39.1647 34.1213 37.1307 36.506 34.6584 38.3646L24.585 45.7027C24.4973 45.7904 24.322 45.7904 24.2343 45.7904H24.2168ZM8.21676 12.9049L7.59429 22.4523C7.0595 28.2824 9.62827 34.0337 14.3976 37.4791L24.208 44.5542L34.0184 37.4791C38.7877 34.0337 41.3565 28.2824 40.8217 22.4523L40.2957 12.9049C37.5516 12.6419 35.1669 10.1608 34.7285 7.07476H13.7839C13.3455 10.1696 10.9521 12.6419 8.21676 12.9049Z" fill="#989898"/>
<path d="M44.1068 45.793C41.9852 45.793 40.2142 44.0221 40.2142 41.9004C40.2142 39.7788 41.9852 38.0078 44.1068 38.0078C46.2285 38.0078 47.9994 39.7788 47.9994 41.9004C47.9994 44.0221 46.2285 45.793 44.1068 45.793ZM44.1068 39.1651C42.6077 39.1651 41.3627 40.4012 41.3627 41.9092C41.3627 43.4171 42.5989 44.6533 44.1068 44.6533C45.6148 44.6533 46.8509 43.4171 46.8509 41.9092C46.8509 40.4012 45.6148 39.1651 44.1068 39.1651Z" fill="#EEF2F6"/>
<path d="M4.86691 8.22406C3.36773 8.22406 2.1228 6.9879 2.1228 5.47995C2.1228 3.97201 3.35897 2.73584 4.86691 2.73584C6.37486 2.73584 7.61102 3.97201 7.61102 5.47995C7.61102 6.9879 6.46253 8.22406 4.86691 8.22406ZM4.86691 3.80543C3.98143 3.80543 3.18362 4.51557 3.18362 5.48872C3.18362 6.3742 3.89376 7.172 4.86691 7.172C5.75239 7.172 6.5502 6.46187 6.5502 5.48872C6.5502 4.51557 5.84006 3.80543 4.86691 3.80543Z" fill="#EEF2F6"/>
</g>
</svg>
