<svg width="16" height="16" viewBox="0 0 16 16" fill="none" xmlns="http://www.w3.org/2000/svg">
    <path d="M14 7.33329C14 11.0333 11.44 14.4933 8 15.3333C4.56 14.4933 2 11.0333 2 7.33329V3.33329L8 0.666626L14 3.33329V7.33329ZM8 14C10.5 13.3333 12.6667 10.36 12.6667 7.47996V4.19996L8 2.11996L3.33333 4.19996V7.47996C3.33333 10.36 5.5 13.3333 8 14ZM9.86667 7.33329V6.33329C9.86667 5.39996 8.93333 4.66663 8 4.66663C7.06667 4.66663 6.13333 5.39996 6.13333 6.33329V7.33329C5.73333 7.33329 5.33333 7.73329 5.33333 8.13329V10.4666C5.33333 10.9333 5.73333 11.3333 6.13333 11.3333H9.8C10.2667 11.3333 10.6667 10.9333 10.6667 10.5333V8.19996C10.6667 7.73329 10.2667 7.33329 9.86667 7.33329ZM9 7.33329H7V6.33329C7 5.79996 7.46667 5.46663 8 5.46663C8.53333 5.46663 9 5.79996 9 6.33329V7.33329Z"
          fill="#333333"/>
</svg>
