<svg width="21" height="20" viewBox="0 0 21 20" fill="none" xmlns="http://www.w3.org/2000/svg">
    <path d="M18.5625 12.2207L17.2832 11.127C17.3438 10.7559 17.375 10.377 17.375 9.99805C17.375 9.61914 17.3438 9.24023 17.2832 8.86914L18.5625 7.77539C18.659 7.69279 18.7281 7.58277 18.7605 7.45996C18.7929 7.33715 18.7872 7.20738 18.7441 7.08789L18.7266 7.03711C18.3744 6.05279 17.847 5.1403 17.1699 4.34375L17.1348 4.30273C17.0526 4.20616 16.9432 4.13673 16.8208 4.10361C16.6984 4.07049 16.5689 4.07522 16.4492 4.11719L14.8613 4.68164C14.2754 4.20117 13.6211 3.82227 12.9141 3.55664L12.6074 1.89648C12.5843 1.77157 12.5237 1.65665 12.4337 1.56699C12.3437 1.47733 12.2285 1.41718 12.1035 1.39453L12.0508 1.38477C11.0332 1.20117 9.96289 1.20117 8.94532 1.38477L8.89258 1.39453C8.76758 1.41718 8.65242 1.47733 8.56241 1.56699C8.47241 1.65665 8.41181 1.77157 8.38868 1.89648L8.08008 3.56445C7.37869 3.83013 6.72552 4.20884 6.14649 4.68555L4.54688 4.11719C4.42728 4.07489 4.29764 4.06998 4.17519 4.10312C4.05274 4.13627 3.94327 4.20589 3.86133 4.30273L3.82618 4.34375C3.1499 5.14087 2.62261 6.0532 2.26954 7.03711L2.25196 7.08789C2.16407 7.33203 2.23633 7.60547 2.4336 7.77539L3.72852 8.88086C3.66797 9.24805 3.63868 9.62305 3.63868 9.99609C3.63868 10.3711 3.66797 10.7461 3.72852 11.1113L2.4336 12.2168C2.3371 12.2994 2.26804 12.4094 2.2356 12.5322C2.20315 12.655 2.20886 12.7848 2.25196 12.9043L2.26954 12.9551C2.62305 13.9395 3.14649 14.8477 3.82618 15.6484L3.86133 15.6895C3.94347 15.786 4.05294 15.8555 4.17532 15.8886C4.2977 15.9217 4.42724 15.917 4.54688 15.875L6.14649 15.3066C6.72852 15.7852 7.37891 16.1641 8.08008 16.4277L8.38868 18.0957C8.41181 18.2206 8.47241 18.3355 8.56241 18.4252C8.65242 18.5149 8.76758 18.575 8.89258 18.5977L8.94532 18.6074C9.97224 18.792 11.0239 18.792 12.0508 18.6074L12.1035 18.5977C12.2285 18.575 12.3437 18.5149 12.4337 18.4252C12.5237 18.3355 12.5843 18.2206 12.6074 18.0957L12.9141 16.4355C13.6208 16.1706 14.2788 15.7905 14.8613 15.3105L16.4492 15.875C16.5688 15.9173 16.6985 15.9222 16.8209 15.8891C16.9434 15.8559 17.0528 15.7863 17.1348 15.6895L17.1699 15.6484C17.8496 14.8457 18.3731 13.9395 18.7266 12.9551L18.7441 12.9043C18.832 12.6641 18.7598 12.3906 18.5625 12.2207ZM15.8965 9.09961C15.9453 9.39453 15.9707 9.69727 15.9707 10C15.9707 10.3027 15.9453 10.6055 15.8965 10.9004L15.7676 11.6836L17.2266 12.9316C17.0054 13.4412 16.7262 13.9235 16.3945 14.3691L14.582 13.7266L13.9688 14.2305C13.502 14.6133 12.9824 14.9141 12.4199 15.125L11.6758 15.4043L11.3262 17.2988C10.7746 17.3613 10.2176 17.3613 9.66602 17.2988L9.31641 15.4004L8.57813 15.1172C8.02149 14.9062 7.50391 14.6055 7.04102 14.2246L6.42774 13.7188L4.60352 14.3672C4.27149 13.9199 3.99414 13.4375 3.77149 12.9297L5.2461 11.6699L5.11914 10.8887C5.07227 10.5977 5.04688 10.2969 5.04688 10C5.04688 9.70117 5.07032 9.40234 5.11914 9.11133L5.2461 8.33008L3.77149 7.07031C3.99219 6.56055 4.27149 6.08008 4.60352 5.63281L6.42774 6.28125L7.04102 5.77539C7.50391 5.39453 8.02149 5.09375 8.57813 4.88281L9.31836 4.60352L9.66797 2.70508C10.2168 2.64258 10.7773 2.64258 11.3281 2.70508L11.6777 4.59961L12.4219 4.87891C12.9824 5.08984 13.5039 5.39062 13.9707 5.77344L14.584 6.27734L16.3965 5.63477C16.7285 6.08203 17.0059 6.56445 17.2285 7.07227L15.7695 8.32031L15.8965 9.09961ZM10.5 6.36719C8.60157 6.36719 7.0625 7.90625 7.0625 9.80469C7.0625 11.7031 8.60157 13.2422 10.5 13.2422C12.3984 13.2422 13.9375 11.7031 13.9375 9.80469C13.9375 7.90625 12.3984 6.36719 10.5 6.36719ZM12.0469 11.3516C11.844 11.555 11.6029 11.7164 11.3374 11.8263C11.0719 11.9363 10.7873 11.9926 10.5 11.9922C9.91602 11.9922 9.36719 11.7637 8.95313 11.3516C8.74966 11.1487 8.58831 10.9076 8.47837 10.6421C8.36843 10.3766 8.31206 10.092 8.3125 9.80469C8.3125 9.2207 8.54102 8.67187 8.95313 8.25781C9.36719 7.84375 9.91602 7.61719 10.5 7.61719C11.084 7.61719 11.6328 7.84375 12.0469 8.25781C12.2503 8.4607 12.4117 8.70181 12.5216 8.96729C12.6316 9.23276 12.688 9.51735 12.6875 9.80469C12.6875 10.3887 12.459 10.9375 12.0469 11.3516Z"
          fill="#333333"/>
</svg>
