<svg width="21" height="20" viewBox="0 0 21 20" fill="none" xmlns="http://www.w3.org/2000/svg">
    <g clip-path="url(#clip0_738_2404)">
        <path d="M7.375 11.8887C7.47 13.0812 8.4125 14.01 10.1025 14.12V15H10.8525V14.1138C12.6025 13.9913 13.625 13.0563 13.625 11.6988C13.625 10.465 12.8425 9.82875 11.4438 9.49875L10.8525 9.35875V6.9625C11.6025 7.0475 12.08 7.4575 12.195 8.025H13.51C13.415 6.87625 12.43 5.9775 10.8525 5.88V5H10.1025V5.89875C8.60875 6.045 7.59 6.94375 7.59 8.215C7.59 9.34 8.3475 10.055 9.60625 10.3488L10.1025 10.4712V13.0138C9.33375 12.8975 8.825 12.4762 8.71 11.8887H7.375ZM10.0963 9.18125C9.35875 9.01 8.95875 8.66125 8.95875 8.13625C8.95875 7.54875 9.39 7.10875 10.1025 6.98V9.18L10.0963 9.18125ZM10.9613 10.6725C11.8575 10.88 12.2712 11.2162 12.2712 11.81C12.2712 12.4875 11.7562 12.9525 10.8525 13.0375V10.6475L10.9613 10.6725Z"
              fill="black"/>
        <path d="M10.5 18.75C8.17936 18.75 5.95376 17.8281 4.31282 16.1872C2.67187 14.5462 1.75 12.3206 1.75 10C1.75 7.67936 2.67187 5.45376 4.31282 3.81282C5.95376 2.17187 8.17936 1.25 10.5 1.25C12.8206 1.25 15.0462 2.17187 16.6872 3.81282C18.3281 5.45376 19.25 7.67936 19.25 10C19.25 12.3206 18.3281 14.5462 16.6872 16.1872C15.0462 17.8281 12.8206 18.75 10.5 18.75ZM10.5 20C13.1522 20 15.6957 18.9464 17.5711 17.0711C19.4464 15.1957 20.5 12.6522 20.5 10C20.5 7.34784 19.4464 4.8043 17.5711 2.92893C15.6957 1.05357 13.1522 0 10.5 0C7.84784 0 5.3043 1.05357 3.42893 2.92893C1.55357 4.8043 0.5 7.34784 0.5 10C0.5 12.6522 1.55357 15.1957 3.42893 17.0711C5.3043 18.9464 7.84784 20 10.5 20Z"
              fill="black"/>
        <path d="M10.5 16.875C8.67664 16.875 6.92795 16.1507 5.63864 14.8614C4.34933 13.572 3.625 11.8234 3.625 10C3.625 8.17664 4.34933 6.42795 5.63864 5.13864C6.92795 3.84933 8.67664 3.125 10.5 3.125C12.3234 3.125 14.072 3.84933 15.3614 5.13864C16.6507 6.42795 17.375 8.17664 17.375 10C17.375 11.8234 16.6507 13.572 15.3614 14.8614C14.072 16.1507 12.3234 16.875 10.5 16.875ZM10.5 17.5C11.4849 17.5 12.4602 17.306 13.3701 16.9291C14.2801 16.5522 15.1069 15.9997 15.8033 15.3033C16.4997 14.6069 17.0522 13.7801 17.4291 12.8701C17.806 11.9602 18 10.9849 18 10C18 9.01509 17.806 8.03982 17.4291 7.12987C17.0522 6.21993 16.4997 5.39314 15.8033 4.6967C15.1069 4.00026 14.2801 3.44781 13.3701 3.0709C12.4602 2.69399 11.4849 2.5 10.5 2.5C8.51088 2.5 6.60322 3.29018 5.1967 4.6967C3.79018 6.10322 3 8.01088 3 10C3 11.9891 3.79018 13.8968 5.1967 15.3033C6.60322 16.7098 8.51088 17.5 10.5 17.5Z"
              fill="black"/>
    </g>
    <defs>
        <clipPath id="clip0_738_2404">
            <rect width="20" height="20" fill="white" transform="translate(0.5)"/>
        </clipPath>
    </defs>
</svg>
