<svg width="20" height="21" viewBox="0 0 20 21" fill="none" xmlns="http://www.w3.org/2000/svg">
    <path d="M8.33337 3.83674H6.00004C5.06671 3.83674 4.60004 3.83674 4.24337 4.01841C3.92975 4.17815 3.67478 4.43312 3.51504 4.74674C3.33337 5.10341 3.33337 5.57007 3.33337 6.50341V14.5034C3.33337 15.4367 3.33337 15.9034 3.51504 16.2601C3.67483 16.5737 3.92978 16.8286 4.24337 16.9884C4.59921 17.1701 5.06587 17.1701 5.99754 17.1701H14.0025C14.9342 17.1701 15.4 17.1701 15.7559 16.9884C16.07 16.8284 16.325 16.5734 16.485 16.2601C16.6667 15.9034 16.6667 15.4376 16.6667 14.5059V12.1701M13.3334 4.67007L8.33337 9.67007V12.1701H10.8334L15.8334 7.17007M13.3334 4.67007L15.8334 2.17007L18.3334 4.67007L15.8334 7.17007M13.3334 4.67007L15.8334 7.17007"
          stroke="#333333" stroke-width="2" stroke-linecap="round" stroke-linejoin="round"/>
</svg>
