<svg width="20" height="20" viewBox="0 0 20 20" fill="none" xmlns="http://www.w3.org/2000/svg">
<path d="M10 1.66663C5.40502 1.66663 1.66669 5.40496 1.66669 9.99996V13.4525C1.66669 14.3058 2.41419 15 3.33335 15H4.16669C4.3877 15 4.59966 14.9122 4.75594 14.7559C4.91222 14.5996 5.00002 14.3876 5.00002 14.1666V9.88079C5.00002 9.65978 4.91222 9.44782 4.75594 9.29154C4.59966 9.13526 4.3877 9.04746 4.16669 9.04746H3.41002C3.87335 5.82246 6.64835 3.33329 10 3.33329C13.3517 3.33329 16.1267 5.82246 16.59 9.04746H15.8334C15.6123 9.04746 15.4004 9.13526 15.2441 9.29154C15.0878 9.44782 15 9.65978 15 9.88079V15C15 15.9191 14.2525 16.6666 13.3334 16.6666H11.6667V15.8333H8.33335V18.3333H13.3334C15.1717 18.3333 16.6667 16.8383 16.6667 15C17.5859 15 18.3334 14.3058 18.3334 13.4525V9.99996C18.3334 5.40496 14.595 1.66663 10 1.66663Z" fill="#333333"/>
</svg>
