<svg width="16" height="17" viewBox="0 0 16 17" fill="none" xmlns="http://www.w3.org/2000/svg">
    <path d="M0 5.75002V5.25002C0 4.8358 0.335781 4.50002 0.75 4.50002H12V3.00002C12 2.3323 12.8093 1.9987 13.2803 2.46967L15.7803 4.96967C16.0732 5.26258 16.0732 5.73745 15.7803 6.03033L13.2803 8.53033C12.8111 8.99945 12 8.67052 12 8.00002V6.50002H0.75C0.335781 6.50002 0 6.16423 0 5.75002ZM15.25 10.5H4V9.00002C4 8.33395 3.19181 7.99752 2.71966 8.46967L0.219656 10.9697C-0.0732187 11.2626 -0.0732187 11.7375 0.219656 12.0303L2.71966 14.5303C3.18928 14.9999 4 14.6699 4 14V12.5H15.25C15.6642 12.5 16 12.1642 16 11.75V11.25C16 10.8358 15.6642 10.5 15.25 10.5Z"
          fill="#989898"/>
</svg>
