<svg width="81" height="30" viewBox="0 0 81 30" fill="none" xmlns="http://www.w3.org/2000/svg">
<path d="M14.8371 29.6449C23.0314 29.6449 29.6742 23.0087 29.6742 14.8225C29.6742 6.63624 23.0314 0 14.8371 0C6.64279 0 0 6.63624 0 14.8225C0 23.0087 6.64279 29.6449 14.8371 29.6449Z" fill="#009393"/>
<path d="M21.3106 10.8076L14.8379 4.34131L10.5229 8.65141L4.34619 14.822L8.91272 19.384L10.8192 21.2883L14.8379 25.3031L19.0852 21.0607L19.1081 21.0378L20.9998 19.1479L21.0139 19.1331L25.329 14.8224L21.3103 10.8076H21.3106ZM7.79443 14.8224L12.8697 9.75175L14.8379 7.78582L16.9363 9.88176L18.9463 11.8901L17.4356 13.4L15.0972 11.0639L9.56508 16.5906L7.79477 14.8224H7.79443ZM14.8376 21.8586L10.7289 17.7539L12.2656 16.2187L16.3742 20.3234L14.8379 21.8586H14.8376ZM17.3924 19.3059L13.2837 15.2013L14.8376 13.5014L17.4787 15.9601L20.4135 13.1757L21.881 14.8217L17.3927 19.3056L17.3924 19.3059Z" fill="white"/>
<path d="M36.0379 19.9589V11.6226H32.7471V9.6853H41.7085V11.6226H38.4177V19.9589H36.0379Z" fill="#009393"/>
<path d="M42.9874 19.9596V9.68604H45.3821V19.9596H42.9874Z" fill="#009393"/>
<path d="M57.2382 9.68604V19.9596H55.2693L50.1569 13.7267V19.9596H47.8064V9.68604H49.7749L54.8873 15.9186V9.68604H57.2382Z" fill="#009393"/>
<path d="M66.6258 14.661H68.8V18.8293C68.2319 19.26 67.5809 19.585 66.8463 19.8053C66.1117 20.0253 65.377 20.1354 64.6428 20.1354C63.8296 20.1354 63.0805 20.0057 62.3951 19.7464C61.7093 19.4874 61.1166 19.1179 60.6173 18.6386C60.1177 18.159 59.7286 17.5965 59.4495 16.9506C59.1703 16.3049 59.0308 15.5956 59.0308 14.8226C59.0308 14.0497 59.1703 13.3403 59.4495 12.6943C59.7286 12.0487 60.1227 11.4862 60.6318 11.0066C61.1412 10.5273 61.7387 10.1579 62.4244 9.89853C63.1098 9.63953 63.864 9.50952 64.6866 9.50952C65.5975 9.50952 66.4178 9.66142 67.1473 9.96455C67.8769 10.268 68.4915 10.7082 68.9911 11.2855L67.4781 12.6943C67.0961 12.2932 66.6848 11.9972 66.2438 11.8065C65.8032 11.6159 65.3184 11.5202 64.7894 11.5202C64.2995 11.5202 63.8495 11.6011 63.4378 11.7624C63.0265 11.9241 62.6715 12.1514 62.3728 12.4451C62.0741 12.7385 61.8438 13.0861 61.6823 13.4869C61.5209 13.8883 61.4399 14.3332 61.4399 14.8226C61.4399 15.312 61.5209 15.7303 61.6823 16.1362C61.8438 16.5424 62.0741 16.892 62.3728 17.1853C62.6715 17.479 63.0242 17.709 63.4307 17.8754C63.837 18.0418 64.285 18.1247 64.7749 18.1247C65.2648 18.1247 65.7027 18.0465 66.1484 17.8899C66.3092 17.8337 66.4684 17.7636 66.6258 17.6804V14.661Z" fill="#009393"/>
<path d="M75.0004 16.3892L72.5578 19.9593H69.8398L73.6252 14.728L75.0004 16.3892Z" fill="#009393"/>
<path d="M75.0778 12.9999L74.2744 13.9564L75.0778 12.9999L73.6261 14.7283L70.0319 9.68604H72.7202L75.0778 12.9999Z" fill="#009393"/>
<path d="M79.9785 9.68604L76.392 14.6472L75.0789 12.9999L75.7595 13.854L75.0789 12.9999L77.4078 9.68604H79.9785Z" fill="#009393"/>
<path d="M80.228 19.9589H77.481L75.0021 16.3888L76.3918 14.6465L80.228 19.9589Z" fill="#009393"/>
</svg>
