<svg width="48" height="46" viewBox="0 0 48 46" fill="none" xmlns="http://www.w3.org/2000/svg">
<g opacity="0.2">
<path d="M44.1056 38.7153C45.9116 38.7153 47.3757 40.1794 47.3757 41.9855C47.3757 43.7915 45.9116 45.2556 44.1056 45.2556C42.2995 45.2556 40.8354 43.7915 40.8354 41.9855C40.8354 40.1794 42.2995 38.7153 44.1056 38.7153Z" fill="#989898"/>
<path d="M4.86685 3.27051C6.10301 3.27051 7.07616 4.24366 7.07616 5.47982C7.07616 6.71599 6.10301 7.68914 4.86685 7.68914C3.63068 7.68914 2.65753 6.71599 2.65753 5.47982C2.65753 4.24366 3.71835 3.27051 4.86685 3.27051Z" fill="#989898"/>
<path d="M41.3686 22.3625C41.9034 28.3768 39.247 34.2946 34.2936 37.9154L24.2202 45.2535L14.1467 37.9154C9.19331 34.3822 6.54563 28.4557 7.07166 22.3625L7.69413 12.3768C10.6136 12.3768 13.0859 9.54499 13.2612 6.54663H35.1791C35.3544 9.46608 37.8267 12.3768 40.7462 12.3768L41.3686 22.3625Z" fill="#333333"/>
<path d="M21.2403 20.7845C21.2408 20.3656 21.3238 19.9511 21.4846 19.5644C21.6454 19.1778 21.8809 18.8267 22.1774 18.5311C22.474 18.2356 22.826 18.0014 23.2131 17.842C23.6003 17.6825 24.0152 17.6009 24.434 17.6019C26.1919 17.6024 27.6276 19.0241 27.6294 20.7862C27.6289 21.205 27.5459 21.6196 27.3851 22.0062C27.2243 22.3928 26.9889 22.744 26.6923 23.0395C26.3957 23.3351 26.0438 23.5692 25.6566 23.7287C25.2694 23.8881 24.8546 23.9697 24.4357 23.9688C24.0169 23.9695 23.602 23.8877 23.2148 23.728C22.8275 23.5684 22.4754 23.334 22.1787 23.0383C21.8819 22.7426 21.6463 22.3913 21.4853 22.0046C21.3243 21.6179 21.2411 21.2033 21.2403 20.7845ZM24.4318 19.5684C24.1079 19.5673 23.797 19.6948 23.5673 19.923C23.3376 20.1511 23.2079 20.4612 23.2068 20.785C23.2085 21.1088 23.3387 21.4188 23.5687 21.6468C23.7988 21.8748 24.11 22.0022 24.4338 22.0008C24.7576 22.0023 25.0687 21.8752 25.2987 21.6473C25.5287 21.4194 25.6587 21.1095 25.6601 20.7857C25.6585 20.4618 25.5283 20.1518 25.2982 19.9238C25.0681 19.6958 24.7556 19.5671 24.4318 19.5684ZM27.9115 29.8554L28.3746 29.8541C29.4608 29.8558 30.4105 29.2678 30.922 28.3917L33.2863 28.3924C33.5471 28.3924 33.7971 28.2889 33.9815 28.1045C34.1658 27.9202 34.2693 27.6702 34.2693 27.4094L34.2685 24.4221C34.2681 23.5566 33.9779 22.716 33.444 22.0345C32.9102 21.353 32.1635 20.8698 31.3232 20.662L31.3228 19.1322C31.3223 17.3914 30.8444 15.6838 29.9411 14.1951C29.0379 12.7064 27.7438 11.4938 26.1998 10.6889C25.6534 10.4043 25.0465 10.2555 24.4306 10.2554C23.8147 10.2552 23.2079 10.4036 22.6617 10.688C21.1181 11.4919 19.8247 12.7039 18.9222 14.1921C18.0198 15.6803 17.5428 17.3876 17.5432 19.1284L17.5437 20.6583C16.7027 20.8658 15.9557 21.3491 15.4219 22.0312C14.8881 22.7132 14.5984 23.5545 14.5991 24.4208L14.6013 27.404C14.6012 27.5334 14.6265 27.6615 14.676 27.781C14.7255 27.9006 14.798 28.0092 14.8895 28.1007C14.981 28.1922 15.0896 28.2648 15.2092 28.3142C15.3287 28.3637 15.4568 28.3891 15.5862 28.3889L17.9505 28.3896C18.2105 28.8344 18.5824 29.2034 19.0293 29.46C19.4761 29.7166 19.9822 29.8517 20.4974 29.852L20.9619 29.8521L20.5298 31.5695C20.4933 31.7147 20.4903 31.8662 20.5212 32.0127C20.5521 32.1591 20.616 32.2966 20.708 32.4147C20.8001 32.5327 20.9178 32.6282 21.0523 32.6939C21.1868 32.7596 21.3345 32.7937 21.4842 32.7937L27.3893 32.7953C27.539 32.7954 27.6867 32.7614 27.8212 32.6958C27.9556 32.6301 28.0733 32.5347 28.1653 32.4167C28.2573 32.2987 28.3211 32.1612 28.3519 32.0148C28.3827 31.8684 28.3797 31.7168 28.3431 31.5717L27.9115 29.8554ZM25.2907 12.4327C26.515 13.0713 27.5411 14.0331 28.2574 15.2137C28.9737 16.3942 29.3528 17.7484 29.3535 19.1289L29.3556 26.9032C29.3557 27.164 29.2521 27.414 29.0678 27.5984C28.8835 27.7827 28.6334 27.8862 28.3726 27.8862L26.6592 27.8857L26.6481 27.8857L22.2213 27.8859L22.2102 27.8859L20.4954 27.884C20.2347 27.8839 19.9846 27.7803 19.8001 27.5958C19.6157 27.4114 19.512 27.1613 19.5119 26.9005L19.5125 19.129C19.5124 17.7481 19.8909 16.3937 20.6068 15.2133C21.3227 14.0328 22.3487 13.0714 23.5731 12.4336C23.8388 12.2954 24.1339 12.2235 24.4334 12.2238C24.7329 12.2241 25.028 12.2967 25.2935 12.4355L25.2907 12.4327ZM25.4206 34.739C25.4207 34.4781 25.3171 34.2277 25.1327 34.043C24.9482 33.8583 24.698 33.7544 24.437 33.7541C24.1761 33.7538 23.9258 33.8573 23.7411 34.0416C23.5565 34.226 23.4528 34.4761 23.4526 34.7371L23.4537 38.4087C23.4536 38.5379 23.479 38.6659 23.5284 38.7853C23.5778 38.9047 23.6502 39.0133 23.7415 39.1047C23.926 39.2894 24.1762 39.3933 24.4372 39.3936C24.6981 39.3939 24.9485 39.2904 25.1331 39.1061C25.2245 39.0148 25.297 38.9064 25.3465 38.7871C25.396 38.6677 25.4215 38.5398 25.4216 38.4106L25.4206 34.739ZM21.4831 33.7547C21.7438 33.7548 21.9939 33.8585 22.1784 34.0429C22.3628 34.2273 22.4665 34.4774 22.4666 34.7382L22.467 36.2124C22.4691 36.343 22.4452 36.4726 22.3967 36.5938C22.3481 36.715 22.2759 36.8253 22.1843 36.9183C22.0927 37.0113 21.9834 37.0851 21.863 37.1353C21.7425 37.1856 21.6132 37.2114 21.4826 37.2112C21.352 37.211 21.2228 37.1847 21.1024 37.1341C20.9821 37.0834 20.873 37.0092 20.7816 36.9159C20.6901 36.8226 20.6182 36.7121 20.5699 36.5907C20.5217 36.4694 20.4981 36.3396 20.5005 36.2091L20.5015 34.7363C20.5018 34.476 20.6053 34.2265 20.7893 34.0425C20.9733 33.8585 21.2228 33.755 21.4831 33.7547ZM28.3717 34.7398C28.374 34.6093 28.3502 34.4796 28.3018 34.3583C28.2533 34.237 28.1812 34.1265 28.0897 34.0334C27.9981 33.9402 27.8889 33.8662 27.7685 33.8157C27.6481 33.7651 27.5188 33.7391 27.3882 33.7391C27.2576 33.739 27.1284 33.765 27.0079 33.8155C26.8875 33.8659 26.7784 33.9399 26.6869 34.033C26.5954 34.1261 26.5234 34.2365 26.475 34.3578C26.4266 34.479 26.4029 34.6087 26.4052 34.7393L26.4056 36.2135C26.4057 36.3427 26.4313 36.4706 26.4809 36.59C26.5305 36.7094 26.603 36.8178 26.6945 36.9091C26.8792 37.0936 27.1296 37.1971 27.3905 37.197C27.6515 37.1969 27.9017 37.0931 28.086 36.9085C28.2704 36.7239 28.3738 36.4736 28.3735 36.2126L28.3717 34.7398Z" fill="#EEF2F6"/>
<path d="M47.2022 4.95312C47.6405 4.95312 48 5.31258 48 5.75093C48 6.18929 47.6405 6.54874 47.2022 6.54874C46.7638 6.54874 46.4044 6.18929 46.4044 5.75093C46.4044 5.31258 46.7638 4.95312 47.2022 4.95312Z" fill="#989898"/>
<path d="M44.3826 27.0535C44.821 27.0535 45.1804 27.4129 45.1804 27.8513C45.1804 28.2896 44.821 28.6491 44.3826 28.6491C43.9443 28.6491 43.5848 28.2896 43.5848 27.8513C43.5848 27.4129 43.9443 27.0535 44.3826 27.0535Z" fill="#989898"/>
<path d="M33.9469 44.2061C34.3852 44.2061 34.7447 44.5655 34.7447 45.0039C34.7447 45.4422 34.3852 45.8017 33.9469 45.8017C33.5085 45.8017 33.1491 45.4422 33.1491 45.0039C33.1491 44.5655 33.5085 44.2061 33.9469 44.2061Z" fill="#989898"/>
<path d="M15.1118 0C15.5502 0 15.9096 0.359452 15.9096 0.797808C15.9096 1.23616 15.5502 1.59562 15.1118 1.59562C14.6734 1.59562 14.314 1.23616 14.314 0.797808C14.314 0.359452 14.6734 0 15.1118 0Z" fill="#989898"/>
<path d="M6.81508 42.5208C7.25344 42.5208 7.61289 42.8802 7.61289 43.3186C7.61289 43.7569 7.25344 44.1164 6.81508 44.1164C6.37672 44.1164 6.01727 43.7569 6.01727 43.3186C6.01727 42.8802 6.37672 42.5208 6.81508 42.5208Z" fill="#989898"/>
<path d="M0.797808 22.627C1.23616 22.627 1.59562 22.9864 1.59562 23.4248C1.59562 23.8631 1.23616 24.2226 0.797808 24.2226C0.359452 24.2226 0 23.8631 0 23.4248C0 22.9864 0.359452 22.627 0.797808 22.627Z" fill="#989898"/>
<path d="M24.2168 45.7904C24.1291 45.7904 23.9537 45.7904 23.8661 45.7027L13.7927 38.3646C11.3203 36.5937 9.28635 34.1213 8.05019 31.2896C6.81402 28.4578 6.27923 25.3717 6.55101 22.3646L7.17347 12.3789C7.17347 12.1159 7.43649 11.8528 7.6995 11.8528C10.1718 11.8528 12.5653 9.38051 12.7406 6.54873C12.7406 6.28572 13.0036 6.02271 13.2666 6.02271H35.1844C35.4474 6.02271 35.7105 6.28572 35.7105 6.54873C35.8858 9.38051 38.1828 11.8528 40.7516 11.8528C41.0146 11.8528 41.2776 12.1159 41.2776 12.3789L41.9 22.3646C42.1631 25.4594 41.637 28.5542 40.4009 31.2896C39.1647 34.1213 37.1307 36.506 34.6584 38.3646L24.585 45.7027C24.4973 45.7904 24.322 45.7904 24.2343 45.7904H24.2168ZM8.21676 12.9049L7.59429 22.4523C7.0595 28.2824 9.62827 34.0337 14.3976 37.4791L24.208 44.5542L34.0184 37.4791C38.7877 34.0337 41.3565 28.2824 40.8217 22.4523L40.2957 12.9049C37.5516 12.6419 35.1669 10.1608 34.7285 7.07476H13.7839C13.3455 10.1696 10.9521 12.6419 8.21676 12.9049Z" fill="#989898"/>
<path d="M44.1069 45.793C41.9852 45.793 40.2143 44.0221 40.2143 41.9004C40.2143 39.7788 41.9852 38.0078 44.1069 38.0078C46.2285 38.0078 47.9995 39.7788 47.9995 41.9004C47.9995 44.0221 46.2285 45.793 44.1069 45.793ZM44.1069 39.1651C42.6077 39.1651 41.3628 40.4012 41.3628 41.9092C41.3628 43.4171 42.5989 44.6533 44.1069 44.6533C45.6148 44.6533 46.851 43.4171 46.851 41.9092C46.851 40.4012 45.6148 39.1651 44.1069 39.1651Z" fill="#EEF2F6"/>
<path d="M4.86691 8.22406C3.36773 8.22406 2.1228 6.9879 2.1228 5.47995C2.1228 3.97201 3.35897 2.73584 4.86691 2.73584C6.37486 2.73584 7.61102 3.97201 7.61102 5.47995C7.61102 6.9879 6.46253 8.22406 4.86691 8.22406ZM4.86691 3.80543C3.98143 3.80543 3.18362 4.51557 3.18362 5.48872C3.18362 6.3742 3.89376 7.172 4.86691 7.172C5.75239 7.172 6.5502 6.46187 6.5502 5.48872C6.5502 4.51557 5.84006 3.80543 4.86691 3.80543Z" fill="#EEF2F6"/>
</g>
</svg>
