<svg width="16" height="17" viewBox="0 0 16 17" fill="none" xmlns="http://www.w3.org/2000/svg">
<path d="M2.98555 13.0096C3.11835 13.0096 3.22555 12.9024 3.22555 12.7696V8.41602H4.23355V3.37442H3.22555V1.50562C3.22555 1.37282 3.11835 1.26562 2.98555 1.26562C2.85275 1.26562 2.74555 1.37282 2.74555 1.50562V3.37442H1.73755V8.41602H2.74555V12.7696C2.74555 12.9024 2.85275 13.0096 2.98555 13.0096ZM6.32795 3.70882C6.19515 3.70882 6.08795 3.81603 6.08795 3.94883V6.27203H5.07995V9.33122H6.08795V10.328C6.08795 10.4608 6.19515 10.568 6.32795 10.568C6.46075 10.568 6.56795 10.4608 6.56795 10.328V9.33122H7.57595V6.27203H6.56795V3.94883C6.56795 3.81603 6.46075 3.70882 6.32795 3.70882ZM13.0143 11.8176C13.1471 11.8176 13.2543 11.7104 13.2543 11.5776V7.62882H14.2623V1.90883H11.7647V7.62882H12.7727V11.5776C12.7727 11.7104 12.8799 11.8176 13.0127 11.8176H13.0143ZM9.67195 3.25602C9.53915 3.25602 9.43195 3.36322 9.43195 3.49602V6.18883H8.42395V14.5456H9.43195V15.4928C9.43195 15.6256 9.53915 15.7328 9.67195 15.7328C9.80475 15.7328 9.91195 15.6256 9.91195 15.4928V14.5456H10.9199V6.18883H9.91195V3.49602C9.91195 3.36322 9.80475 3.25602 9.67195 3.25602Z" fill="#333333"/>
</svg>
