<svg width="21" height="20" viewBox="0 0 21 20" fill="none" xmlns="http://www.w3.org/2000/svg">
    <path d="M13.8333 1.66663C11.5333 1.66663 9.66658 3.53329 9.66658 5.83329C9.66658 8.13329 11.5333 9.99996 13.8333 9.99996C16.1333 9.99996 17.9999 8.13329 17.9999 5.83329C17.9999 3.53329 16.1333 1.66663 13.8333 1.66663ZM13.8333 8.33329C12.4499 8.33329 11.3333 7.21663 11.3333 5.83329C11.3333 4.44996 12.4499 3.33329 13.8333 3.33329C15.2166 3.33329 16.3333 4.44996 16.3333 5.83329C16.3333 7.21663 15.2166 8.33329 13.8333 8.33329ZM16.3333 13.3333H14.6666C14.6666 12.3333 14.0416 11.4333 13.1083 11.0833L7.97492 9.16663H1.33325V18.3333H6.33325V17.1333L12.1666 18.75L18.8333 16.6666V15.8333C18.8333 14.45 17.7166 13.3333 16.3333 13.3333ZM4.66659 16.6666H2.99992V10.8333H4.66659V16.6666ZM12.1416 17.0083L6.33325 15.4166V10.8333H7.67492L12.5249 12.6416C12.8083 12.75 12.9999 13.025 12.9999 13.3333C12.9999 13.3333 11.3333 13.2916 11.0833 13.2083L9.09992 12.55L8.57492 14.1333L10.5583 14.7916C10.9833 14.9333 11.4249 15 11.8749 15H16.3333C16.6583 15 16.9499 15.2 17.0833 15.475L12.1416 17.0083Z"
          fill="#333333"/>
</svg>
