<svg width="230" height="230" viewBox="0 0 230 230" fill="none" xmlns="http://www.w3.org/2000/svg">
    <g opacity="0.1">
        <path fill-rule="evenodd" clip-rule="evenodd"
              d="M115 150.938C116.906 150.938 118.734 150.18 120.082 148.832C121.43 147.484 122.188 145.656 122.188 143.75V38.5921L138.288 57.3851C139.528 58.8338 141.293 59.7305 143.194 59.8779C145.096 60.0252 146.978 59.4112 148.427 58.1709C149.875 56.9306 150.772 55.1655 150.92 53.2641C151.067 51.3626 150.453 49.4805 149.213 48.0317L120.463 14.4901C119.788 13.701 118.95 13.0675 118.007 12.6332C117.064 12.1988 116.038 11.9739 115 11.9739C113.962 11.9739 112.936 12.1988 111.993 12.6332C111.05 13.0675 110.212 13.701 109.538 14.4901L80.7876 48.0317C80.1734 48.7491 79.7066 49.5804 79.4137 50.4781C79.1208 51.3759 79.0076 52.3225 79.0806 53.2641C79.1536 54.2056 79.4113 55.1235 79.839 55.9654C80.2667 56.8073 80.856 57.5567 81.5734 58.1709C82.2907 58.785 83.122 59.2519 84.0198 59.5448C84.9176 59.8377 85.8642 59.9508 86.8057 59.8779C87.7472 59.8049 88.6652 59.5472 89.5071 59.1195C90.349 58.6918 91.0984 58.1024 91.7126 57.3851L107.813 38.6017V143.75C107.813 147.718 111.033 150.938 115 150.938Z"
              fill="#333333"/>
        <path d="M153.333 86.25C146.606 86.25 143.242 86.25 140.818 87.8696C139.775 88.5671 138.88 89.4625 138.182 90.505C136.563 92.9296 136.563 96.2933 136.563 103.021V143.75C136.563 149.469 134.291 154.953 130.247 158.997C126.203 163.041 120.719 165.313 115 165.313C109.281 165.313 103.797 163.041 99.7531 158.997C95.7093 154.953 93.4376 149.469 93.4376 143.75V103.021C93.4376 96.2933 93.4376 92.9296 91.818 90.505C91.1205 89.4625 90.2251 88.5671 89.1826 87.8696C86.758 86.25 83.3942 86.25 76.6668 86.25C49.5651 86.25 36.0047 86.25 27.5905 94.6737C19.1667 103.088 19.1667 116.629 19.1667 143.74V153.324C19.1667 180.445 19.1667 193.986 27.5905 202.41C36.0047 210.833 49.5651 210.833 76.6668 210.833H153.333C180.435 210.833 193.996 210.833 202.41 202.41C210.833 193.986 210.833 180.435 210.833 153.333V143.75C210.833 116.639 210.833 103.088 202.41 94.6737C193.996 86.25 180.435 86.25 153.333 86.25Z"
              fill="#333333"/>
    </g>
</svg>
