<svg width="25" height="24" viewBox="0 0 25 24" fill="none" xmlns="http://www.w3.org/2000/svg">
    <g clip-path="url(#clip0_373_4991)">
        <path d="M15.5 4V17L14.3 15.4C14.2212 15.2949 14.1225 15.2064 14.0095 15.1395C13.8965 15.0726 13.7714 15.0286 13.6414 15.0101C13.5114 14.9915 13.379 14.9987 13.2518 15.0313C13.1246 15.0639 13.0051 15.1212 12.9 15.2C12.7949 15.2788 12.7064 15.3775 12.6395 15.4905C12.5726 15.6035 12.5286 15.7286 12.51 15.8586C12.4915 15.9886 12.4987 16.121 12.5313 16.2482C12.5639 16.3754 12.6212 16.4949 12.7 16.6L15.7 20.6C15.7933 20.7223 15.9136 20.8214 16.0515 20.8897C16.1894 20.9579 16.3412 20.9934 16.495 20.9934C16.6488 20.9934 16.8006 20.9579 16.9385 20.8897C17.0764 20.8214 17.1967 20.7223 17.29 20.6L20.29 16.74C20.4531 16.5305 20.5263 16.2647 20.4935 16.0013C20.4607 15.7378 20.3245 15.4981 20.115 15.335C19.9055 15.1719 19.6397 15.0987 19.3763 15.1315C19.1128 15.1643 18.8731 15.3005 18.71 15.51L17.5 17.08V4C17.5 3.73478 17.3946 3.48043 17.2071 3.29289C17.0196 3.10536 16.7652 3 16.5 3C16.2348 3 15.9804 3.10536 15.7929 3.29289C15.6054 3.48043 15.5 3.73478 15.5 4ZM8.5 20V7L9.7 8.6C9.85913 8.81217 10.096 8.95244 10.3586 8.98995C10.6211 9.02746 10.8878 8.95913 11.1 8.8C11.3122 8.64087 11.4524 8.40397 11.4899 8.14142C11.5275 7.87887 11.4591 7.61217 11.3 7.4L8.3 3.4C8.20668 3.27769 8.08639 3.17857 7.9485 3.11034C7.81062 3.04211 7.65884 3.00661 7.505 3.00661C7.35115 3.00661 7.19938 3.04211 7.0615 3.11034C6.92361 3.17857 6.80332 3.27769 6.71 3.4L3.71 7.26C3.59602 7.40763 3.5256 7.58419 3.50669 7.76973C3.48779 7.95528 3.52114 8.14242 3.603 8.31C3.67066 8.44707 3.76884 8.5668 3.89 8.66C4.09847 8.82239 4.36274 8.89567 4.62507 8.86381C4.8874 8.83196 5.12645 8.69757 5.29 8.49L6.5 6.92V20C6.5 20.2652 6.60536 20.5196 6.79289 20.7071C6.98043 20.8946 7.23478 21 7.5 21C7.76522 21 8.01957 20.8946 8.20711 20.7071C8.39464 20.5196 8.5 20.2652 8.5 20Z"
              fill="#333333"/>
    </g>
    <defs>
        <clipPath id="clip0_373_4991">
            <rect width="24" height="24" fill="white" transform="translate(0.5)"/>
        </clipPath>
    </defs>
</svg>
