<svg width="21" height="20" viewBox="0 0 21 20" fill="none" xmlns="http://www.w3.org/2000/svg">
    <path d="M13.4167 11.4583C13.4167 11.2926 13.4825 11.1336 13.5997 11.0164C13.7169 10.8992 13.8759 10.8333 14.0417 10.8333H15.7083C15.8741 10.8333 16.0331 10.8992 16.1503 11.0164C16.2675 11.1336 16.3333 11.2926 16.3333 11.4583C16.3333 11.6241 16.2675 11.7831 16.1503 11.9003C16.0331 12.0175 15.8741 12.0833 15.7083 12.0833H14.0417C13.8759 12.0833 13.7169 12.0175 13.5997 11.9003C13.4825 11.7831 13.4167 11.6241 13.4167 11.4583ZM3 4.16667H3.01167C3.06291 3.70832 3.28128 3.28495 3.62504 2.97748C3.96879 2.67001 4.4138 2.50001 4.875 2.5H14.4583C14.7046 2.5 14.9484 2.5485 15.1759 2.64273C15.4034 2.73695 15.61 2.87506 15.7842 3.04917C15.9583 3.22328 16.0964 3.42998 16.1906 3.65747C16.2848 3.88495 16.3333 4.12877 16.3333 4.375V5.0725C16.9265 5.21334 17.4549 5.55015 17.8329 6.02847C18.211 6.50679 18.4167 7.09865 18.4167 7.70833V14.7917C18.4167 15.51 18.1313 16.1988 17.6234 16.7067C17.1155 17.2147 16.4266 17.5 15.7083 17.5H5.70833C4.99004 17.5 4.30116 17.2147 3.79325 16.7067C3.28534 16.1988 3 15.51 3 14.7917V4.16667ZM15.7083 6.25H4.25V14.7917C4.25 15.5967 4.90333 16.25 5.70833 16.25H15.7083C16.0951 16.25 16.466 16.0964 16.7395 15.8229C17.013 15.5494 17.1667 15.1784 17.1667 14.7917V7.70833C17.1667 7.32156 17.013 6.95063 16.7395 6.67714C16.466 6.40365 16.0951 6.25 15.7083 6.25ZM15.0833 5V4.375C15.0833 4.20924 15.0175 4.05027 14.9003 3.93306C14.7831 3.81585 14.6241 3.75 14.4583 3.75H4.875C4.70924 3.75 4.55027 3.81585 4.43306 3.93306C4.31585 4.05027 4.25 4.20924 4.25 4.375C4.25 4.54076 4.31585 4.69973 4.43306 4.81694C4.55027 4.93415 4.70924 5 4.875 5H15.0833Z"
          fill="#333333"/>
</svg>
