<svg width="14" height="14" viewBox="0 0 14 14" fill="none" xmlns="http://www.w3.org/2000/svg">
<path d="M9.90665 8.01906C9.95998 7.57906 9.99998 7.13906 9.99998 6.68573C9.99998 6.23239 9.95998 5.79239 9.90665 5.35239H12.16C12.2666 5.77906 12.3333 6.22573 12.3333 6.68573C12.3333 7.14573 12.2666 7.59239 12.16 8.01906M8.72665 11.7257C9.12665 10.9857 9.43331 10.1857 9.64665 9.35239H11.6133C10.9674 10.4646 9.94272 11.3071 8.72665 11.7257ZM8.55998 8.01906H5.43998C5.37331 7.57906 5.33331 7.13906 5.33331 6.68573C5.33331 6.23239 5.37331 5.78573 5.43998 5.35239H8.55998C8.61998 5.78573 8.66665 6.23239 8.66665 6.68573C8.66665 7.13906 8.61998 7.57906 8.55998 8.01906ZM6.99998 11.9924C6.44665 11.1924 5.99998 10.3057 5.72665 9.35239H8.27331C7.99998 10.3057 7.55331 11.1924 6.99998 11.9924ZM4.33331 4.01906H2.38665C3.02588 2.90387 4.04984 2.06005 5.26665 1.64573C4.86665 2.38573 4.56665 3.18572 4.33331 4.01906ZM2.38665 9.35239H4.33331C4.56665 10.1857 4.86665 10.9857 5.26665 11.7257C4.0524 11.3068 3.02988 10.4642 2.38665 9.35239ZM1.83998 8.01906C1.73331 7.59239 1.66665 7.14573 1.66665 6.68573C1.66665 6.22573 1.73331 5.77906 1.83998 5.35239H4.09331C4.03998 5.79239 3.99998 6.23239 3.99998 6.68573C3.99998 7.13906 4.03998 7.57906 4.09331 8.01906M6.99998 1.37239C7.55331 2.17239 7.99998 3.06573 8.27331 4.01906H5.72665C5.99998 3.06573 6.44665 2.17239 6.99998 1.37239ZM11.6133 4.01906H9.64665C9.43799 3.19336 9.12903 2.39632 8.72665 1.64573C9.95331 2.06573 10.9733 2.91239 11.6133 4.01906ZM6.99998 0.0190582C3.31331 0.0190582 0.333313 3.01906 0.333313 6.68573C0.333313 8.45384 1.03569 10.1495 2.28593 11.3998C2.90499 12.0188 3.63992 12.5099 4.44876 12.8449C5.25759 13.18 6.1245 13.3524 6.99998 13.3524C8.76809 13.3524 10.4638 12.65 11.714 11.3998C12.9643 10.1495 13.6666 8.45384 13.6666 6.68573C13.6666 5.81025 13.4942 4.94334 13.1592 4.1345C12.8241 3.32566 12.3331 2.59074 11.714 1.97168C11.095 1.35262 10.36 0.861559 9.5512 0.526528C8.74237 0.191497 7.87546 0.0190582 6.99998 0.0190582Z" fill="#FAFAFA"/>
</svg>
