<svg width="20" height="21" viewBox="0 0 20 21" fill="none" xmlns="http://www.w3.org/2000/svg">
    <g clip-path="url(#clip0_379_8957)">
        <path d="M13.3333 3.00342C13.971 3.00338 14.5846 3.24702 15.0485 3.68449C15.5125 4.12195 15.7917 4.72017 15.8291 5.35675L15.8333 5.50342V13.8368H16.4583C16.9975 13.8368 17.4416 14.2468 17.495 14.7718L17.5 14.8784V16.3368C17.5 16.9744 17.2564 17.588 16.8189 18.052C16.3814 18.5159 15.7832 18.7952 15.1466 18.8326L15 18.8368H6.66663C6.02895 18.8368 5.41536 18.5931 4.95141 18.1557C4.48745 17.7182 4.2082 17.12 4.17079 16.4834L4.16663 16.3368V8.00342H2.70829C2.45041 8.00354 2.20165 7.90799 2.01015 7.73527C1.81866 7.56256 1.69803 7.32494 1.67163 7.06842L1.66663 6.96175V5.50342C1.66659 4.86574 1.91023 4.25216 2.3477 3.7882C2.78516 3.32425 3.38338 3.045 4.01996 3.00758L4.16663 3.00342H13.3333ZM13.3333 4.67008H5.83329V16.3368C5.83329 16.5578 5.92109 16.7697 6.07737 16.926C6.23365 17.0823 6.44561 17.1701 6.66663 17.1701C6.88764 17.1701 7.0996 17.0823 7.25588 16.926C7.41216 16.7697 7.49996 16.5578 7.49996 16.3368V14.8784C7.49996 14.3034 7.96663 13.8368 8.54163 13.8368H14.1666V5.50342C14.1666 5.2824 14.0788 5.07044 13.9225 4.91416C13.7663 4.75788 13.5543 4.67008 13.3333 4.67008ZM15.8333 15.5034H9.16663V16.3368C9.16663 16.6284 9.11663 16.9093 9.02496 17.1701H15C15.221 17.1701 15.4329 17.0823 15.5892 16.926C15.7455 16.7697 15.8333 16.5578 15.8333 16.3368V15.5034ZM9.99996 10.5034C10.221 10.5034 10.4329 10.5912 10.5892 10.7475C10.7455 10.9038 10.8333 11.1157 10.8333 11.3368C10.8333 11.5578 10.7455 11.7697 10.5892 11.926C10.4329 12.0823 10.221 12.1701 9.99996 12.1701H8.33329C8.11228 12.1701 7.90032 12.0823 7.74404 11.926C7.58776 11.7697 7.49996 11.5578 7.49996 11.3368C7.49996 11.1157 7.58776 10.9038 7.74404 10.7475C7.90032 10.5912 8.11228 10.5034 8.33329 10.5034H9.99996ZM11.6666 7.17008C11.8876 7.17008 12.0996 7.25788 12.2559 7.41416C12.4122 7.57044 12.5 7.7824 12.5 8.00342C12.5 8.22443 12.4122 8.43639 12.2559 8.59267C12.0996 8.74895 11.8876 8.83675 11.6666 8.83675H8.33329C8.11228 8.83675 7.90032 8.74895 7.74404 8.59267C7.58776 8.43639 7.49996 8.22443 7.49996 8.00342C7.49996 7.7824 7.58776 7.57044 7.74404 7.41416C7.90032 7.25788 8.11228 7.17008 8.33329 7.17008H11.6666ZM4.16663 4.67008C3.96251 4.67011 3.76551 4.74505 3.61298 4.88068C3.46045 5.01631 3.36301 5.20321 3.33913 5.40592L3.33329 5.50342V6.33675H4.16663V4.67008Z"
              fill="#333333"/>
    </g>
    <defs>
        <clipPath id="clip0_379_8957">
            <rect width="20" height="20" fill="white" transform="translate(0 0.503418)"/>
        </clipPath>
    </defs>
</svg>
